<svg width="18" height="16" viewBox="0 0 18 16" fill="none" xmlns="http://www.w3.org/2000/svg">
<path fill-rule="evenodd" clip-rule="evenodd" d="M8.86354 0.0393145C8.66263 0.114516 8.51148 0.224822 8.41549 0.366253C8.36483 0.4409 7.893 1.51108 7.36695 2.74441C6.41866 4.9677 6.40962 4.98701 6.30946 5.00316C6.25387 5.01213 5.13717 5.11585 3.82785 5.23369C1.27257 5.46367 1.30245 5.45897 1.06742 5.66536C0.879561 5.83028 0.792679 6.03973 0.793462 6.3256C0.794278 6.62725 0.85607 6.75583 1.12448 7.01461C1.22904 7.11542 2.04135 7.83312 2.92957 8.6094C3.8178 9.38572 4.58479 10.0595 4.63402 10.1067L4.72354 10.1925L4.18242 12.5575C3.61598 15.0329 3.5888 15.1934 3.69327 15.4426C3.86037 15.8413 4.27061 16.0666 4.67607 15.9825C4.86488 15.9433 4.94771 15.896 7.41455 14.4191C8.29321 13.8931 9.04232 13.4489 9.07922 13.4321C9.13531 13.4065 9.48309 13.6031 11.2009 14.6312C12.3309 15.3075 13.3205 15.8901 13.3999 15.9258C13.495 15.9686 13.6146 15.9909 13.7501 15.9909C14.2446 15.9909 14.6249 15.6084 14.618 15.1181C14.6162 14.9901 14.428 14.1042 14.0739 12.557L13.5326 10.1917L13.7366 10.009C13.8488 9.90848 14.682 9.17659 15.5882 8.38253C16.4944 7.58849 17.2762 6.87931 17.3256 6.80659C17.6383 6.34622 17.4324 5.6912 16.9128 5.49329C16.822 5.45871 15.9902 5.37056 14.3221 5.21872C12.9708 5.09572 11.8592 4.98913 11.852 4.98186C11.8447 4.97462 11.4103 3.96365 10.8866 2.73531C10.3629 1.50697 9.88882 0.437539 9.83316 0.358814C9.63202 0.0742889 9.17364 -0.0767338 8.86354 0.0393145ZM10.0535 3.44889C10.5501 4.61211 10.9933 5.61384 11.0383 5.67495C11.1351 5.80607 11.3459 5.95439 11.4936 5.99514C11.5514 6.01112 12.6285 6.11748 13.8871 6.23151C15.1457 6.3455 16.1755 6.44794 16.1755 6.45913C16.1755 6.47029 15.4231 7.13803 14.5034 7.943C13.5838 8.74793 12.7814 9.45815 12.7203 9.52128C12.5603 9.68663 12.4904 9.86251 12.4895 10.1016C12.489 10.2485 12.6292 10.9234 12.9939 12.5301C13.2716 13.7538 13.4944 14.7596 13.4888 14.7652C13.4832 14.7708 12.6063 14.2522 11.5401 13.6127C10.4738 12.9732 9.53157 12.4228 9.44613 12.3894C9.26241 12.3176 9.02281 12.3112 8.84703 12.3734C8.77747 12.398 7.83378 12.9488 6.74994 13.5973C5.66609 14.2459 4.77431 14.7715 4.76821 14.7654C4.76214 14.7593 4.98458 13.7522 5.26255 12.5274C5.6243 10.9336 5.76778 10.2432 5.76726 10.0993C5.76638 9.85439 5.69085 9.67381 5.51715 9.50132C5.44779 9.43241 4.64635 8.72363 3.73617 7.9262C2.82599 7.12877 2.08131 6.46778 2.08131 6.45731C2.08131 6.44687 3.11104 6.34514 4.36956 6.23128C5.62811 6.11742 6.70521 6.01115 6.76308 5.99517C6.9098 5.95465 7.12147 5.8064 7.21654 5.6775C7.26059 5.61782 7.70364 4.6161 8.20114 3.45147C8.69865 2.28681 9.11583 1.33392 9.12819 1.33392C9.14056 1.33392 9.55695 2.28567 10.0535 3.44889Z" fill="#DA9002"/>
</svg>
