<svg width="17" height="16" viewBox="0 0 17 16" fill="none" xmlns="http://www.w3.org/2000/svg">
<path fill-rule="evenodd" clip-rule="evenodd" d="M8.08388 0.0376429C7.88284 0.112901 7.73167 0.223244 7.63582 0.364688C7.58524 0.439359 7.11335 1.50985 6.58716 2.74359C5.63794 4.96923 5.62969 4.98686 5.5292 5.00308C5.47349 5.01205 4.3563 5.11584 3.04655 5.23372C0.508383 5.46214 0.527083 5.45926 0.294291 5.65603C0.0693963 5.8461 -0.0548489 6.25336 0.0235427 6.54343C0.0437444 6.61814 0.107776 6.74545 0.165836 6.82635C0.223895 6.90726 1.05712 7.65948 2.01744 8.498C2.97775 9.33648 3.80348 10.061 3.8524 10.1079L3.94133 10.1933L3.40075 12.5595C3.04763 14.105 2.85919 14.9935 2.85739 15.1214C2.8525 15.4678 3.03043 15.755 3.34536 15.9091C3.57542 16.0216 3.85351 16.0302 4.07478 15.9315C4.15627 15.8952 4.9787 15.4133 5.90239 14.8606C6.82612 14.308 7.73758 13.7627 7.92788 13.649C8.11818 13.5353 8.29533 13.4341 8.3215 13.424C8.34934 13.4133 9.22448 13.9177 10.4232 14.6354C11.553 15.3117 12.5434 15.8948 12.6241 15.9313C12.8435 16.0303 13.1219 16.0218 13.3523 15.9091C13.6672 15.755 13.8451 15.4678 13.8403 15.1214C13.8385 14.9935 13.65 14.1049 13.2969 12.5595L12.7564 10.1933L12.829 10.1237C12.8689 10.0855 13.6946 9.36112 14.6639 8.51409C15.6332 7.66706 16.4737 6.90771 16.5318 6.82665C16.6649 6.64092 16.7157 6.45512 16.6933 6.23639C16.6593 5.90458 16.4368 5.60805 16.1357 5.4934C16.0449 5.45881 15.2129 5.37062 13.5442 5.21874C12.1925 5.0957 11.0805 4.98904 11.0732 4.98173C11.0659 4.97442 10.6244 3.94848 10.0922 2.70182C9.55984 1.45512 9.08313 0.38303 9.03274 0.319291C8.83164 0.0650571 8.37379 -0.0708718 8.08388 0.0376429Z" fill="#DA9002"/>
</svg>
