<svg width="26" height="26" viewBox="0 0 26 26" fill="none" xmlns="http://www.w3.org/2000/svg">
<circle opacity="0.7" cx="13" cy="13" r="12" stroke="black" stroke-width="0.6"/>
<path fill-rule="evenodd" clip-rule="evenodd" d="M12.6006 8.01197C11.6238 8.10765 10.7211 8.46768 9.92965 9.0772C9.54421 9.37402 9.04367 9.93184 8.75441 10.3869C8.62948 10.5834 8.38631 11.0814 8.29919 11.3191C8.20179 11.5848 8.09798 11.9909 8.04689 12.306C7.98437 12.6917 7.98437 13.424 8.04689 13.8097C8.13529 14.3549 8.27513 14.7957 8.51449 15.2837C8.77601 15.8168 9.04794 16.1947 9.48339 16.6302C9.91886 17.0656 10.2968 17.3376 10.8299 17.5991C11.3179 17.8384 11.7586 17.9783 12.3039 18.0667C12.6896 18.1292 13.4218 18.1292 13.8075 18.0667C14.3528 17.9783 14.7936 17.8384 15.2815 17.5991C15.8146 17.3376 16.1925 17.0656 16.628 16.6302C17.0635 16.1947 17.3354 15.8168 17.5969 15.2837C17.7706 14.9296 17.858 14.6975 17.9516 14.3416C18.0762 13.8677 18.1078 13.6079 18.1078 13.0579C18.1078 12.5078 18.0762 12.248 17.9516 11.7741C17.858 11.4182 17.7706 11.1862 17.5969 10.832C17.3354 10.2989 17.0635 9.92104 16.628 9.48557C16.1925 9.05011 15.8146 8.77819 15.2815 8.51667C14.794 8.27752 14.3445 8.13485 13.8174 8.05193C13.5266 8.00619 12.8772 7.98486 12.6006 8.01197ZM13.5264 8.80545C14.4911 8.91172 15.3743 9.33943 16.0742 10.0394C16.8954 10.8606 17.3293 11.904 17.3293 13.0579C17.3293 14.2117 16.8954 15.2552 16.0742 16.0764C15.253 16.8976 14.2096 17.3315 13.0557 17.3315C11.9019 17.3315 10.8584 16.8976 10.0372 16.0764C9.21598 15.2552 8.78211 14.2117 8.78211 13.0579C8.78211 11.904 9.21598 10.8606 10.0372 10.0394C10.7275 9.34903 11.6199 8.91302 12.5611 8.80624C12.7788 8.78155 13.3054 8.78112 13.5264 8.80545ZM12.8852 10.3852C12.7902 10.4283 12.7128 10.5225 12.6806 10.6342C12.6642 10.6912 12.6595 11.0589 12.6639 11.9499C12.6697 13.1543 12.671 13.1885 12.7107 13.2656C12.7438 13.3297 12.9016 13.4585 13.5417 13.9441C13.9763 14.2738 14.3716 14.5673 14.4201 14.5964C14.7509 14.7948 15.1419 14.4417 14.9745 14.0959C14.9344 14.0131 14.8549 13.9474 14.1907 13.4492L13.4514 12.8947V11.7921C13.4514 11.0205 13.4446 10.6694 13.4289 10.6223C13.3728 10.4547 13.2277 10.3482 13.0557 10.3482C13.0067 10.3482 12.93 10.3648 12.8852 10.3852Z" fill="black"/>
</svg>
