<svg width="100" height="100" viewBox="0 0 100 100" fill="none" xmlns="http://www.w3.org/2000/svg">
<g clip-path="url(#clip0_1012_228)">
<path d="M83.8013 0H16.1987C7.2525 0 0 7.2525 0 16.1987V83.8013C0 92.7475 7.2525 100 16.1987 100H83.8013C92.7475 100 100 92.7475 100 83.8013V16.1987C100 7.2525 92.7475 0 83.8013 0Z" fill="#82B1FF"/>
<path d="M55.9586 0H16.1987C7.2525 0 0 7.2525 0 16.1987V83.8013C0 92.7475 7.2525 100 16.1987 100H37.0575C20.6398 80.3116 26.8211 43.9278 39.2212 29.734C51.1955 16.0286 54.8508 5.05829 55.9586 0V0Z" fill="#4285F4"/>
<path d="M45.5999 74.6624C43.5461 74.6624 41.5647 73.8766 40.0671 72.4583L18.9939 52.5097C15.7659 49.4542 15.6263 44.36 18.6819 41.132C21.7374 37.904 26.8308 37.7637 30.0596 40.82L45.136 55.0915L69.4875 28.0034C72.4592 24.6976 77.548 24.4275 80.8538 27.3984C84.1589 30.37 84.4297 35.4588 81.4581 38.7646L51.5852 71.9944C50.1341 73.6081 48.0932 74.5678 45.9242 74.6556C45.8158 74.6601 45.7075 74.6624 45.5999 74.6624Z" fill="white"/>
<path d="M30.0596 40.823C26.8308 37.7667 21.7374 37.9071 18.6819 41.1351C15.6263 44.3631 15.7659 49.4572 18.9939 52.5128L27.5381 60.6015C28.2362 54.1669 29.7575 47.9603 31.8678 42.5351L30.0596 40.823Z" fill="#F1F1F1"/>
</g>
<defs>
<clipPath id="clip0_1012_228">
<path d="M0 0H100V88C100 94.6274 94.6274 100 88 100H12C5.37258 100 0 94.6274 0 88V0Z" fill="white"/>
</clipPath>
</defs>
</svg>
