<svg width="100" height="100" viewBox="0 0 100 100" fill="none" xmlns="http://www.w3.org/2000/svg">
<g clip-path="url(#clip0_1103_82)">
<path d="M83.8013 0H16.1987C7.2525 0 0 7.2525 0 16.1987V83.8013C0 92.7475 7.2525 100 16.1987 100H83.8013C92.7475 100 100 92.7475 100 83.8013V16.1987C100 7.2525 92.7475 0 83.8013 0Z" fill="#E00606"/>
<path d="M55.9586 0H16.1987C7.2525 0 0 7.2525 0 16.1987V83.8013C0 92.7475 7.2525 100 16.1987 100H37.0575C20.6398 80.3116 26.8211 43.9278 39.2212 29.734C51.1955 16.0286 54.8508 5.05829 55.9586 0V0Z" fill="#9C0F03"/>
<path fill-rule="evenodd" clip-rule="evenodd" d="M26.4624 33.5237C24.5125 31.5738 24.5125 28.4123 26.4624 26.4624C28.4123 24.5125 31.5738 24.5125 33.5237 26.4624L49.9999 42.9387L66.4761 26.4625C68.426 24.5126 71.5875 24.5126 73.5374 26.4625C75.4873 28.4124 75.4873 31.5738 73.5374 33.5237L57.0612 49.9999L73.5374 66.4761C75.4873 68.426 75.4873 71.5875 73.5374 73.5374C71.5875 75.4873 68.426 75.4873 66.4761 73.5374L49.9999 57.0612L33.5237 73.5374C31.5738 75.4874 28.4123 75.4874 26.4624 73.5374C24.5125 71.5875 24.5125 68.4261 26.4624 66.4762L42.9387 49.9999L26.4624 33.5237Z" fill="white"/>
</g>
<defs>
<clipPath id="clip0_1103_82">
<path d="M0 0H100V88C100 94.6274 94.6274 100 88 100H12C5.37258 100 0 94.6274 0 88V0Z" fill="white"/>
</clipPath>
</defs>
</svg>
