<svg width="237" height="20" viewBox="0 0 237 20" fill="none" xmlns="http://www.w3.org/2000/svg">
<path d="M31.5274 6.27277L37.8637 17.2475C38.7385 18.7628 40.816 19.2013 42.5038 18.2268C44.1916 17.2524 44.8506 15.234 43.9757 13.7187L37.6395 2.74396C36.7646 1.22863 34.6871 0.790163 32.9993 1.76462C31.3115 2.73907 30.6525 4.75744 31.5274 6.27277Z" fill="#4285F4"/>
<path fill-rule="evenodd" clip-rule="evenodd" d="M52.2385 11.6362H58.8549C60.7959 11.6362 62.3839 13.2242 62.3839 15.1652C62.3839 17.1063 60.7959 18.6942 58.8549 18.6942H52.2385V11.6366V11.6362Z" fill="#34A853"/>
<path d="M42.8499 6.28156L49.1862 17.2563C50.061 18.7716 52.1385 19.2101 53.8263 18.2356C55.5141 17.2611 56.1731 15.2428 55.2982 13.7274L48.962 2.75276C48.0871 1.23743 46.0096 0.798959 44.3218 1.77341C42.634 2.74786 41.975 4.76623 42.8499 6.28156Z" fill="#EA4335"/>
<path d="M1.58406 6.28156L7.92029 17.2563C8.79517 18.7716 10.8726 19.2101 12.5604 18.2356C14.2482 17.2611 14.9072 15.2428 14.0324 13.7274L7.69612 2.75276C6.82124 1.23743 4.74378 0.798961 3.05599 1.77341C1.36819 2.74786 0.709182 4.76623 1.58406 6.28156Z" fill="#EA4335"/>
<path fill-rule="evenodd" clip-rule="evenodd" d="M25.479 7.71846L19.7492 11.0268C18.0683 11.9972 15.8992 11.4161 14.9285 9.73513C13.9582 8.0542 14.5393 5.88515 16.2202 4.91482L21.95 1.60645L25.479 7.71846Z" fill="#5CA47B"/>
<path d="M32.5978 13.7262L26.2616 2.75156C25.3867 1.23623 23.3093 0.797761 21.6215 1.77221C19.9337 2.74666 19.2747 4.76503 20.1495 6.28036L26.4858 17.255C27.3606 18.7704 29.4381 19.2088 31.1259 18.2344C32.8137 17.2599 33.4727 15.2416 32.5978 13.7262Z" fill="#FBBC05"/>
<path d="M76.2914 18.8382C79.8002 18.8382 82.2588 16.9765 82.2588 13.8497V13.8017C82.2588 11.0327 80.4447 9.76798 76.912 8.90833C73.6896 8.14461 72.9259 7.57164 72.9259 6.28253V6.23456C72.9259 5.13657 73.9283 4.25331 75.6469 4.25331C76.9596 4.25331 78.2008 4.68314 79.4899 5.51844C79.7286 5.66159 79.9673 5.73317 80.2536 5.73317C81.0173 5.73317 81.6379 5.13657 81.6379 4.37285C81.6379 3.79987 81.3276 3.39403 80.9933 3.20329C79.4895 2.20085 77.7949 1.65186 75.6945 1.65186C72.3765 1.65186 69.9894 3.63311 69.9894 6.49726V6.54486C69.9894 9.6241 71.9947 10.6745 75.551 11.5338C78.6538 12.2499 79.3224 12.8945 79.3224 14.0876V14.1356C79.3224 15.3767 78.1764 16.236 76.3627 16.236C74.5485 16.236 73.0687 15.6155 71.6844 14.5175C71.4933 14.3743 71.2306 14.2548 70.8251 14.2548C70.0614 14.2548 69.4408 14.8517 69.4408 15.6154C69.4408 16.0929 69.6795 16.4987 70.0138 16.7374C71.8755 18.1217 74.0239 18.8378 76.2914 18.8378V18.8382Z" fill="black"/>
<path d="M85.7196 17.2629C85.7196 18.0745 86.3638 18.7187 87.1995 18.7187C88.0112 18.7187 88.6553 18.0742 88.6553 17.2629V13.2288H91.9733C95.6491 13.2288 98.6568 11.2715 98.6568 7.5241V7.47614C98.6568 4.11059 96.2221 1.89062 92.3076 1.89062H87.1995C86.3638 1.89062 85.7196 2.53518 85.7196 3.37048V17.2625V17.2629ZM88.6553 10.5794V4.56402H92.0689C94.2648 4.56402 95.6731 5.59044 95.6731 7.54771V7.59568C95.6731 9.33822 94.2888 10.5794 92.0689 10.5794H88.6553Z" fill="black"/>
<path d="M99.1818 17.358C99.1818 18.1217 99.7784 18.7187 100.542 18.7187C101.163 18.7187 101.664 18.3844 101.903 17.7878L103.311 14.5654H111.426L112.787 17.6923C113.049 18.3128 113.527 18.7187 114.219 18.7187C115.007 18.7187 115.603 18.0981 115.603 17.3104C115.603 17.1197 115.556 16.9046 115.436 16.6898L109.23 2.84541C108.896 2.1053 108.323 1.65186 107.488 1.65186H107.344C106.509 1.65186 105.912 2.1053 105.578 2.84541L99.3721 16.6898C99.253 16.9285 99.1814 17.1433 99.1814 17.358H99.1818ZM104.433 11.9636L107.369 5.20852L110.305 11.9636H104.433Z" fill="black"/>
<path d="M118.78 17.2628C118.78 18.0744 119.424 18.7186 120.26 18.7186C121.071 18.7186 121.716 18.0741 121.716 17.2628V12.7752H125.415L129.473 17.9549C129.807 18.4084 130.237 18.7186 130.905 18.7186C131.621 18.7186 132.314 18.1696 132.314 17.3579C132.314 16.9045 132.123 16.5942 131.836 16.236L128.638 12.2019C130.881 11.5097 132.433 9.88637 132.433 7.21333V7.16537C132.433 5.70949 131.932 4.46798 131.049 3.56111C129.975 2.51108 128.328 1.89014 126.227 1.89014H120.26C119.424 1.89014 118.78 2.53469 118.78 3.36999V17.262V17.2628ZM121.716 10.1734V4.56391H125.988C128.16 4.56391 129.449 5.54273 129.449 7.33287V7.38084C129.449 9.07542 128.113 10.1734 126.012 10.1734H121.716H121.716Z" fill="black"/>
<path d="M136.036 17.2645C136.036 18.0762 136.68 18.7203 137.516 18.7203C138.328 18.7203 138.972 18.0758 138.972 17.2645V13.8034L141.693 11.1776L147.064 18.0282C147.374 18.434 147.732 18.7203 148.305 18.7203C149.141 18.7203 149.785 18.0998 149.785 17.2881C149.785 16.8347 149.618 16.548 149.379 16.2381L143.745 9.24427L148.949 4.23175C149.283 3.92146 149.474 3.58719 149.474 3.13375C149.474 2.41763 148.925 1.77344 148.113 1.77344C147.588 1.77344 147.23 1.96419 146.896 2.32244L138.972 10.295V3.22968C138.972 2.41799 138.327 1.77381 137.516 1.77381C136.68 1.77381 136.036 2.41836 136.036 3.22968V17.2649L136.036 17.2645Z" fill="black"/>
<path d="M153 17.3719C153 18.1835 153.644 18.8277 154.48 18.8277C155.292 18.8277 155.936 18.1832 155.936 17.3719V11.9059H163.144C163.884 11.9059 164.481 11.3089 164.481 10.5692C164.481 9.82909 163.884 9.2325 163.144 9.2325H155.936V4.6734H164.219C164.959 4.6734 165.555 4.07681 165.555 3.3367C165.555 2.59659 164.959 2 164.219 2H154.48C153.644 2 153 2.64456 153 3.47986V17.3719Z" fill="black"/>
<path d="M176.543 18.888C181.675 18.888 185.303 14.9495 185.303 10.2472V10.1996C185.303 5.49738 181.723 1.60645 176.591 1.60645C171.459 1.60645 167.831 5.54497 167.831 10.2472V10.2952C167.831 14.9974 171.411 18.8884 176.543 18.8884L176.543 18.888ZM176.591 16.167C173.273 16.167 170.91 13.4936 170.91 10.2472V10.1996C170.91 6.95326 173.225 4.30383 176.543 4.30383C179.861 4.30383 182.224 7.00121 182.224 10.2472V10.2952C182.224 13.5412 179.909 16.167 176.591 16.167Z" fill="black"/>
<path d="M188.861 17.2628C188.861 18.0744 189.505 18.7186 190.341 18.7186C191.152 18.7186 191.797 18.0741 191.797 17.2628V12.7752H195.496L199.554 17.9549C199.888 18.4084 200.318 18.7186 200.986 18.7186C201.702 18.7186 202.395 18.1696 202.395 17.3579C202.395 16.9045 202.204 16.5942 201.917 16.236L198.719 12.2019C200.962 11.5097 202.514 9.88637 202.514 7.21333V7.16537C202.514 5.70949 202.013 4.46798 201.13 3.56111C200.056 2.51108 198.409 1.89014 196.308 1.89014H190.341C189.505 1.89014 188.861 2.53469 188.861 3.36999V17.262V17.2628ZM191.797 10.1734V4.56391H196.069C198.241 4.56391 199.53 5.54273 199.53 7.33287V7.38084C199.53 9.07542 198.194 10.1734 196.093 10.1734H191.797H191.797Z" fill="black"/>
<path d="M213.874 18.8876C216.572 18.8876 218.362 18.0283 219.937 16.644C220.2 16.4053 220.415 16.0475 220.415 15.594C220.415 14.8539 219.77 14.2333 219.03 14.2333C218.672 14.2333 218.362 14.3765 218.147 14.5676C216.929 15.594 215.736 16.167 213.97 16.167C210.771 16.167 208.456 13.5176 208.456 10.2472V10.1996C208.456 6.92964 210.795 4.30383 213.97 4.30383C215.569 4.30383 216.81 4.87644 217.956 5.80767C218.147 5.95082 218.433 6.09397 218.839 6.09397C219.651 6.09397 220.295 5.4734 220.295 4.66171C220.295 4.1367 220.033 3.73086 219.722 3.49215C218.266 2.37017 216.571 1.60645 213.993 1.60645C208.933 1.60645 205.376 5.49738 205.376 10.2472V10.2952C205.376 15.093 209.004 18.8884 213.874 18.8884L213.874 18.8876Z" fill="black"/>
<path d="M225.213 18.5988H235.047C235.764 18.5988 236.36 18.0259 236.36 17.2861C236.36 16.57 235.764 15.9734 235.047 15.9734H226.669V11.4859H233.854C234.57 11.4859 235.167 10.9129 235.167 10.1971C235.167 9.45703 234.57 8.86044 233.854 8.86044H226.669V4.51607H234.928C235.644 4.51607 236.241 3.94346 236.241 3.20335C236.241 2.48722 235.644 1.89062 234.928 1.89062H225.214C224.378 1.89062 223.734 2.53518 223.734 3.37048V17.1194C223.734 17.9547 224.378 18.5992 225.214 18.5992L225.213 18.5988Z" fill="black"/>
</svg>
