<svg width="24" height="14" viewBox="0 0 24 14" fill="none" xmlns="http://www.w3.org/2000/svg">
<path fill-rule="evenodd" clip-rule="evenodd" d="M7.80901 12.9912C7.31197 13.4882 6.50613 13.4882 6.00909 12.9912L0.91893 7.90105L0.918182 7.90031C0.796158 7.77829 0.704091 7.63765 0.641982 7.48753C0.579755 7.33748 0.54541 7.17293 0.54541 7.00036C0.54541 6.82847 0.579486 6.66455 0.641244 6.51496C0.67186 6.44065 0.70981 6.36865 0.755096 6.30006C0.801693 6.22949 0.856055 6.16253 0.918182 6.1004L0.91893 6.09966L6.00909 1.00949C6.50613 0.512461 7.31197 0.512461 7.80901 1.00949C8.30603 1.50652 8.30603 2.31237 7.80901 2.8094L4.89077 5.72763H22.1818C22.8847 5.72763 23.4545 6.29745 23.4545 7.00036C23.4545 7.70326 22.8847 8.27308 22.1818 8.27308H4.89077L7.80901 11.1913C8.30603 11.6883 8.30603 12.4942 7.80901 12.9912Z" fill="black"/>
</svg>
