<?xml version="1.0" encoding="UTF-8" standalone="no"?>
<svg
   xmlns:dc="http://purl.org/dc/elements/1.1/"
   xmlns:cc="http://creativecommons.org/ns#"
   xmlns:rdf="http://www.w3.org/1999/02/22-rdf-syntax-ns#"
   xmlns:svg="http://www.w3.org/2000/svg"
   xmlns="http://www.w3.org/2000/svg"
   xmlns:sodipodi="http://sodipodi.sourceforge.net/DTD/sodipodi-0.dtd"
   xmlns:inkscape="http://www.inkscape.org/namespaces/inkscape"
   width="700pt"
   height="700pt"
   version="1.1"
   viewBox="0 0 700 700"
   id="svg149"
   sodipodi:docname="noun-pause-1948203.svg"
   inkscape:version="1.0.1 (3bc2e813f5, 2020-09-07)">
  <metadata
     id="metadata153">
    <rdf:RDF>
      <cc:Work
         rdf:about="">
        <dc:format>image/svg+xml</dc:format>
        <dc:type
           rdf:resource="http://purl.org/dc/dcmitype/StillImage" />
      </cc:Work>
    </rdf:RDF>
  </metadata>
  <sodipodi:namedview
     pagecolor="#ffffff"
     bordercolor="#666666"
     borderopacity="1"
     objecttolerance="10"
     gridtolerance="10"
     guidetolerance="10"
     inkscape:pageopacity="0"
     inkscape:pageshadow="2"
     inkscape:window-width="1366"
     inkscape:window-height="745"
     id="namedview151"
     showgrid="false"
     inkscape:zoom="0.59546703"
     inkscape:cx="229.03806"
     inkscape:cy="466.66667"
     inkscape:window-x="-8"
     inkscape:window-y="-8"
     inkscape:window-maximized="1"
     inkscape:current-layer="g147" />
  <defs
     id="defs65">
    <symbol
       id="u"
       overflow="visible">
      <path
         d="m3.9844-0.23438c-0.19922 0.10547-0.41406 0.18359-0.64062 0.23438-0.21875 0.050781-0.45312 0.078125-0.70312 0.078125-0.71875 0-1.293-0.19531-1.7188-0.59375-0.41797-0.40625-0.625-0.95703-0.625-1.6562 0-0.6875 0.20703-1.2344 0.625-1.6406 0.42578-0.40625 1-0.60938 1.7188-0.60938 0.25 0 0.48438 0.03125 0.70312 0.09375 0.22656 0.054687 0.44141 0.13281 0.64062 0.23438v0.89062c-0.21094-0.13281-0.41406-0.23438-0.60938-0.29688-0.19922-0.070312-0.41406-0.10938-0.64062-0.10938-0.39844 0-0.71094 0.13281-0.9375 0.39062-0.23047 0.25-0.34375 0.60156-0.34375 1.0469 0 0.44922 0.11328 0.80469 0.34375 1.0625 0.22656 0.25 0.53906 0.375 0.9375 0.375 0.22656 0 0.44141-0.03125 0.64062-0.09375 0.19531-0.0625 0.39844-0.16406 0.60938-0.3125z"
         id="path2" />
    </symbol>
    <symbol
       id="b"
       overflow="visible">
      <path
         d="m2.9219-2.375c-0.09375-0.039062-0.1875-0.070312-0.28125-0.09375-0.085937-0.019531-0.17188-0.03125-0.26562-0.03125-0.27344 0-0.48047 0.089844-0.625 0.26562-0.13672 0.16797-0.20312 0.41406-0.20312 0.73438v1.5h-1.0469v-3.25h1.0469v0.53125c0.125-0.21875 0.27344-0.375 0.45312-0.46875 0.17578-0.09375 0.38281-0.14062 0.625-0.14062h0.10938c0.039063 0 0.10156 0.007813 0.1875 0.015625z"
         id="path5" />
    </symbol>
    <symbol
       id="a"
       overflow="visible">
      <path
         d="m3.75-1.6406v0.29688h-2.4375c0.03125 0.25 0.11719 0.4375 0.26562 0.5625 0.15625 0.11719 0.36719 0.17188 0.64062 0.17188 0.21875 0 0.44141-0.03125 0.67188-0.09375 0.22656-0.0625 0.46094-0.16016 0.70312-0.29688v0.79688c-0.25 0.09375-0.5 0.16406-0.75 0.20312-0.24219 0.050781-0.48047 0.078125-0.71875 0.078125-0.59375 0-1.0586-0.14453-1.3906-0.4375-0.32422-0.30078-0.48438-0.72266-0.48438-1.2656 0-0.53125 0.16016-0.94531 0.48438-1.25 0.32031-0.30078 0.76562-0.45312 1.3281-0.45312 0.50781 0 0.91406 0.15625 1.2188 0.46875 0.3125 0.30469 0.46875 0.71094 0.46875 1.2188zm-1.0625-0.34375c0-0.19531-0.0625-0.35156-0.1875-0.46875-0.11719-0.125-0.26172-0.1875-0.4375-0.1875-0.21094 0-0.375 0.058594-0.5 0.17188-0.125 0.11719-0.20312 0.27734-0.23438 0.48438z"
         id="path8" />
    </symbol>
    <symbol
       id="g"
       overflow="visible">
      <path
         d="m1.9531-1.4688c-0.21094 0-0.37109 0.039062-0.48438 0.10938-0.10547 0.074219-0.15625 0.18359-0.15625 0.32812 0 0.13672 0.039062 0.24219 0.125 0.3125 0.082031 0.074219 0.20703 0.10938 0.375 0.10938 0.1875 0 0.34766-0.066406 0.48438-0.20312 0.13281-0.14453 0.20312-0.32031 0.20312-0.53125v-0.125zm1.5938-0.39062v1.8594h-1.0469v-0.48438c-0.13672 0.19922-0.29297 0.34375-0.46875 0.4375-0.17969 0.082031-0.39062 0.125-0.64062 0.125-0.33594 0-0.60938-0.09375-0.82812-0.28125-0.21094-0.19531-0.3125-0.45703-0.3125-0.78125 0-0.375 0.12891-0.64844 0.39062-0.82812 0.26953-0.17578 0.6875-0.26562 1.25-0.26562h0.60938v-0.09375c0-0.15625-0.070312-0.26953-0.20312-0.34375-0.125-0.082031-0.32422-0.125-0.59375-0.125-0.23047 0-0.44531 0.023437-0.64062 0.0625-0.1875 0.042969-0.35938 0.10938-0.51562 0.20312v-0.79688c0.21875-0.050781 0.4375-0.085937 0.65625-0.10938 0.22656-0.03125 0.45703-0.046875 0.6875-0.046875 0.58203 0 1.0039 0.11719 1.2656 0.34375 0.25781 0.23047 0.39062 0.60547 0.39062 1.125z"
         id="path11" />
    </symbol>
    <symbol
       id="c"
       overflow="visible">
      <path
         d="m1.6406-4.1875v0.9375h1.0625v0.73438h-1.0625v1.3906c0 0.14844 0.023437 0.24609 0.078125 0.29688 0.0625 0.054687 0.17969 0.078125 0.35938 0.078125h0.54688v0.75h-0.89062c-0.41797 0-0.71484-0.082031-0.89062-0.25-0.16797-0.17578-0.25-0.46875-0.25-0.875v-1.3906h-0.51562v-0.73438h0.51562v-0.9375z"
         id="path14" />
    </symbol>
    <symbol
       id="k"
       overflow="visible">
      <path
         d="m2.7188-2.7812v-1.7344h1.0469v4.5156h-1.0469v-0.46875c-0.14844 0.1875-0.30859 0.32812-0.48438 0.42188-0.16797 0.082031-0.36719 0.125-0.59375 0.125-0.39844 0-0.72656-0.15625-0.98438-0.46875-0.26172-0.32031-0.39062-0.73438-0.39062-1.2344s0.12891-0.90625 0.39062-1.2188c0.25781-0.32031 0.58594-0.48438 0.98438-0.48438 0.22656 0 0.42578 0.046875 0.59375 0.14062 0.17578 0.085938 0.33594 0.21875 0.48438 0.40625zm-0.6875 2.1094c0.21875 0 0.38281-0.078125 0.5-0.23438 0.125-0.16406 0.1875-0.40625 0.1875-0.71875s-0.0625-0.54688-0.1875-0.70312c-0.11719-0.16406-0.28125-0.25-0.5-0.25s-0.39062 0.085937-0.51562 0.25c-0.11719 0.15625-0.17188 0.39062-0.17188 0.70312s0.054688 0.55469 0.17188 0.71875c0.125 0.15625 0.29688 0.23438 0.51562 0.23438z"
         id="path17" />
    </symbol>
    <symbol
       id="j"
       overflow="visible">
      <path
         d="m2.2344-0.67188c0.21875 0 0.38281-0.078125 0.5-0.23438 0.125-0.16406 0.1875-0.40625 0.1875-0.71875s-0.0625-0.54688-0.1875-0.70312c-0.11719-0.16406-0.28125-0.25-0.5-0.25-0.23047 0-0.40234 0.085937-0.51562 0.25-0.11719 0.15625-0.17188 0.39062-0.17188 0.70312s0.054687 0.55469 0.17188 0.71875c0.11328 0.15625 0.28516 0.23438 0.51562 0.23438zm-0.6875-2.1094c0.13281-0.1875 0.28906-0.32031 0.46875-0.40625 0.17578-0.09375 0.37891-0.14062 0.60938-0.14062 0.39453 0 0.72266 0.16406 0.98438 0.48438 0.25781 0.3125 0.39062 0.71875 0.39062 1.2188s-0.13281 0.91406-0.39062 1.2344c-0.26172 0.3125-0.58984 0.46875-0.98438 0.46875-0.23047 0-0.43359-0.042969-0.60938-0.125-0.17969-0.09375-0.33594-0.23438-0.46875-0.42188v0.46875h-1.0469v-4.5156h1.0469z"
         id="path20" />
    </symbol>
    <symbol
       id="f"
       overflow="visible">
      <path
         d="m0.078125-3.25h1.0312l0.875 2.2031 0.75-2.2031h1.0312l-1.3594 3.5625c-0.13672 0.36328-0.29688 0.61328-0.48438 0.75-0.1875 0.14453-0.42969 0.21875-0.71875 0.21875h-0.60938v-0.67188h0.32812c0.17578 0 0.30078-0.03125 0.375-0.09375 0.082031-0.054687 0.14844-0.15234 0.20312-0.29688l0.015625-0.09375z"
         id="path23" />
    </symbol>
    <symbol
       id="e"
       overflow="visible">
      <path
         d="m0.46875-1.2656v-1.9844h1.0469v0.3125c0 0.17969-0.007813 0.40234-0.015625 0.67188v0.53125c0 0.26172 0.003906 0.44922 0.015625 0.5625 0.019531 0.11719 0.046875 0.19922 0.078125 0.25 0.039062 0.074219 0.09375 0.13281 0.15625 0.17188 0.070312 0.03125 0.15625 0.046875 0.25 0.046875 0.21875 0 0.39062-0.082031 0.51562-0.25 0.125-0.16406 0.1875-0.39453 0.1875-0.6875v-1.6094h1.0312v3.25h-1.0312v-0.46875c-0.15625 0.1875-0.32422 0.32812-0.5 0.42188-0.17969 0.082031-0.37109 0.125-0.57812 0.125-0.375 0-0.66406-0.11328-0.85938-0.34375-0.19922-0.22656-0.29688-0.5625-0.29688-1z"
         id="path26" />
    </symbol>
    <symbol
       id="t"
       overflow="visible">
      <path
         d="m0.34375-3.25h2.8438v0.71875l-1.7188 1.7812h1.7188v0.75h-2.9219v-0.73438l1.7188-1.7812h-1.6406z"
         id="path29" />
    </symbol>
    <symbol
       id="i"
       overflow="visible">
      <path
         d="m0.5-3.25h1.0469v3.25h-1.0469zm0-1.2656h1.0469v0.84375h-1.0469z"
         id="path32" />
    </symbol>
    <symbol
       id="s"
       overflow="visible">
      <path
         d="m3.0469-3.1562v0.79688c-0.23047-0.09375-0.44922-0.16016-0.65625-0.20312-0.19922-0.050781-0.39062-0.078125-0.57812-0.078125-0.19922 0-0.34375 0.027344-0.4375 0.078125-0.09375 0.042969-0.14062 0.11719-0.14062 0.21875 0 0.085938 0.03125 0.15234 0.09375 0.20312 0.070313 0.042969 0.20703 0.074219 0.40625 0.09375l0.17188 0.03125c0.53125 0.0625 0.89062 0.17188 1.0781 0.32812s0.28125 0.40234 0.28125 0.73438c0 0.34375-0.13281 0.60547-0.39062 0.78125-0.25 0.16797-0.63281 0.25-1.1406 0.25-0.21875 0-0.44531-0.015625-0.67188-0.046875-0.23047-0.03125-0.46484-0.082031-0.70312-0.15625v-0.78125c0.20703 0.09375 0.42188 0.16797 0.64062 0.21875 0.21875 0.054688 0.4375 0.078125 0.65625 0.078125 0.20703 0 0.35938-0.023437 0.45312-0.078125 0.10156-0.0625 0.15625-0.14453 0.15625-0.25 0-0.09375-0.039063-0.16016-0.10938-0.20312-0.0625-0.050781-0.19922-0.085937-0.40625-0.10938l-0.1875-0.03125c-0.46875-0.050781-0.79688-0.15625-0.98438-0.3125-0.17969-0.16406-0.26562-0.40625-0.26562-0.71875 0-0.34375 0.11328-0.59766 0.34375-0.76562 0.23828-0.16406 0.60156-0.25 1.0938-0.25 0.1875 0 0.38281 0.015625 0.59375 0.046875 0.21875 0.023438 0.45312 0.0625 0.70312 0.125z"
         id="path35" />
    </symbol>
    <symbol
       id="h"
       overflow="visible">
      <path
         d="m2.6406-4.5156v0.67188h-0.57812c-0.14844 0-0.25 0.027344-0.3125 0.078125-0.054688 0.054687-0.078125 0.14844-0.078125 0.28125v0.23438h0.89062v0.73438h-0.89062v2.5156h-1.0469v-2.5156h-0.51562v-0.73438h0.51562v-0.23438c0-0.35156 0.097656-0.61328 0.29688-0.78125 0.19531-0.16406 0.50391-0.25 0.92188-0.25z"
         id="path38" />
    </symbol>
    <symbol
       id="d"
       overflow="visible">
      <path
         d="m2.0469-2.5938c-0.23047 0-0.40625 0.085938-0.53125 0.25-0.11719 0.16797-0.17188 0.40625-0.17188 0.71875s0.054688 0.55469 0.17188 0.71875c0.125 0.16797 0.30078 0.25 0.53125 0.25 0.22656 0 0.39844-0.082031 0.51562-0.25 0.125-0.16406 0.1875-0.40625 0.1875-0.71875s-0.0625-0.55078-0.1875-0.71875c-0.11719-0.16406-0.28906-0.25-0.51562-0.25zm0-0.73438c0.5625 0 1 0.15234 1.3125 0.45312 0.3125 0.30469 0.46875 0.71875 0.46875 1.25s-0.15625 0.94922-0.46875 1.25c-0.3125 0.30469-0.75 0.45312-1.3125 0.45312s-1.0078-0.14844-1.3281-0.45312c-0.3125-0.30078-0.46875-0.71875-0.46875-1.25s0.15625-0.94531 0.46875-1.25c0.32031-0.30078 0.76562-0.45312 1.3281-0.45312z"
         id="path41" />
    </symbol>
    <symbol
       id="r"
       overflow="visible">
      <path
         d="m3.5156-2.7188c0.13281-0.19531 0.28906-0.34766 0.46875-0.45312 0.1875-0.10156 0.38281-0.15625 0.59375-0.15625 0.375 0 0.66016 0.11719 0.85938 0.34375 0.19531 0.23047 0.29688 0.5625 0.29688 1v1.9844h-1.0469v-1.7031-0.0625-0.125c0-0.22656-0.039062-0.39453-0.10938-0.5-0.0625-0.10156-0.16797-0.15625-0.3125-0.15625-0.19922 0-0.35547 0.085937-0.46875 0.25-0.10547 0.15625-0.15625 0.39062-0.15625 0.70312v1.5938h-1.0469v-1.7031c0-0.35156-0.03125-0.58203-0.09375-0.6875-0.0625-0.10156-0.17188-0.15625-0.32812-0.15625-0.21094 0-0.36719 0.085937-0.46875 0.25-0.10547 0.15625-0.15625 0.38672-0.15625 0.6875v1.6094h-1.0469v-3.25h1.0469v0.46875c0.125-0.1875 0.26953-0.32031 0.4375-0.40625 0.16406-0.09375 0.34766-0.14062 0.54688-0.14062 0.21875 0 0.41406 0.054687 0.59375 0.15625 0.17578 0.10547 0.30469 0.25781 0.39062 0.45312z"
         id="path44" />
    </symbol>
    <symbol
       id="q"
       overflow="visible">
      <path
         d="m3.7656-1.9844v1.9844h-1.0312v-1.5156c0-0.28125-0.011719-0.47266-0.03125-0.57812-0.011719-0.11328-0.03125-0.19141-0.0625-0.23438-0.042969-0.070313-0.10156-0.125-0.17188-0.15625-0.0625-0.039063-0.14062-0.0625-0.23438-0.0625-0.21875 0-0.39062 0.085937-0.51562 0.25-0.11719 0.16797-0.17188 0.39844-0.17188 0.6875v1.6094h-1.0469v-4.5156h1.0469v1.7344c0.15625-0.1875 0.32031-0.32031 0.5-0.40625 0.17578-0.09375 0.36719-0.14062 0.57812-0.14062 0.375 0 0.65625 0.11719 0.84375 0.34375 0.19531 0.23047 0.29688 0.5625 0.29688 1z"
         id="path47" />
    </symbol>
    <symbol
       id="p"
       overflow="visible">
      <path
         d="m0.54688-4.3438h1.25l1.5781 2.9844v-2.9844h1.0625v4.3438h-1.25l-1.5781-2.9844v2.9844h-1.0625z"
         id="path50" />
    </symbol>
    <symbol
       id="o"
       overflow="visible">
      <path
         d="m3.7656-1.9844v1.9844h-1.0312v-1.5156c0-0.28125-0.011719-0.47266-0.03125-0.57812-0.011719-0.11328-0.03125-0.19141-0.0625-0.23438-0.042969-0.070313-0.10156-0.125-0.17188-0.15625-0.0625-0.039063-0.14062-0.0625-0.23438-0.0625-0.21875 0-0.39062 0.085937-0.51562 0.25-0.11719 0.16797-0.17188 0.39844-0.17188 0.6875v1.6094h-1.0469v-3.25h1.0469v0.46875c0.15625-0.1875 0.32031-0.32031 0.5-0.40625 0.17578-0.09375 0.36719-0.14062 0.57812-0.14062 0.375 0 0.65625 0.11719 0.84375 0.34375 0.19531 0.23047 0.29688 0.5625 0.29688 1z"
         id="path53" />
    </symbol>
    <symbol
       id="n"
       overflow="visible">
      <path
         d="m0.54688-4.3438h1.8594c0.55078 0 0.97266 0.125 1.2656 0.375 0.30078 0.24219 0.45312 0.58984 0.45312 1.0469 0 0.46094-0.15234 0.8125-0.45312 1.0625-0.29297 0.24219-0.71484 0.35938-1.2656 0.35938h-0.73438v1.5h-1.125zm1.125 0.8125v1.2188h0.60938c0.21875 0 0.38281-0.050781 0.5-0.15625 0.125-0.11328 0.1875-0.26562 0.1875-0.45312 0-0.19531-0.0625-0.34766-0.1875-0.45312-0.11719-0.10156-0.28125-0.15625-0.5-0.15625z"
         id="path56" />
    </symbol>
    <symbol
       id="m"
       overflow="visible">
      <path
         d="m0.5-3.25h1.0469v3.1875c0 0.4375-0.10938 0.76953-0.32812 1-0.21094 0.22656-0.51172 0.34375-0.90625 0.34375h-0.51562v-0.67188h0.1875c0.19531 0 0.33203-0.046875 0.40625-0.14062 0.070313-0.09375 0.10938-0.27344 0.10938-0.53125zm0-1.2656h1.0469v0.84375h-1.0469z"
         id="path59" />
    </symbol>
    <symbol
       id="l"
       overflow="visible">
      <path
         d="m3.125-3.1562v0.84375c-0.13672-0.09375-0.27734-0.16016-0.42188-0.20312-0.14844-0.050781-0.29297-0.078125-0.4375-0.078125-0.29297 0-0.52344 0.089844-0.6875 0.26562-0.15625 0.16797-0.23438 0.40234-0.23438 0.70312 0 0.30469 0.078125 0.54297 0.23438 0.71875 0.16406 0.16797 0.39453 0.25 0.6875 0.25 0.15625 0 0.30469-0.023438 0.45312-0.078125 0.14453-0.050781 0.28125-0.125 0.40625-0.21875v0.85938c-0.15625 0.0625-0.32031 0.10156-0.48438 0.125-0.16797 0.03125-0.33984 0.046875-0.51562 0.046875-0.58594 0-1.043-0.14453-1.375-0.4375-0.33594-0.30078-0.5-0.72266-0.5-1.2656 0-0.53906 0.16406-0.95703 0.5-1.25 0.33203-0.30078 0.78906-0.45312 1.375-0.45312 0.17578 0 0.34766 0.015625 0.51562 0.046875 0.16406 0.023438 0.32812 0.0625 0.48438 0.125z"
         id="path62" />
    </symbol>
  </defs>
  <g
     id="g147">
    <path
       d="m 350,5.7646996 c 190.4236,0 344.23532,153.8117204 344.23532,344.2353204 C 694.23532,540.4236 540.4236,694.23532 350,694.23532 159.57641,694.23532 5.7646951,540.4236 5.7646951,350.00002 5.7646951,159.57642 159.57641,5.7646996 350,5.7646996 Z M 221.09618,178.62001 h 86.42396 v 342.77231 h -86.42396 z m 171.38,0 h 86.42396 v 342.77231 h -86.42396 z"
       fill-rule="evenodd"
       id="path67"
       style="stroke-width:1" />
  </g>
</svg>
