<svg width="63" height="20" viewBox="0 0 63 20" fill="none" xmlns="http://www.w3.org/2000/svg">
<path d="M31.527 6.27238L37.8632 17.247C38.738 18.7623 40.8155 19.2008 42.5033 18.2263C44.1911 17.2519 44.8501 15.2335 43.9752 13.7182L37.639 2.74361C36.7641 1.22829 34.6867 0.789822 32.9989 1.76427C31.3111 2.73871 30.6521 4.75706 31.527 6.27238Z" fill="#4285F4"/>
<path fill-rule="evenodd" clip-rule="evenodd" d="M52.2383 11.6367H58.8546C60.7956 11.6367 62.3835 13.2247 62.3835 15.1657C62.3835 17.1067 60.7956 18.6946 58.8546 18.6946H52.2383V11.6371V11.6367Z" fill="#34A853"/>
<path d="M42.8492 6.28166L49.1854 17.2563C50.0603 18.7716 52.1378 19.2101 53.8255 18.2356C55.5133 17.2612 56.1723 15.2428 55.2975 13.7275L48.9613 2.75289C48.0864 1.23757 46.009 0.799104 44.3212 1.77355C42.6334 2.74799 41.9744 4.76635 42.8492 6.28166Z" fill="#EA4335"/>
<path d="M1.58363 6.28167L7.91982 17.2563C8.79468 18.7716 10.8721 19.2101 12.5599 18.2356C14.2477 17.2612 14.9067 15.2428 14.0318 13.7275L7.69564 2.75289C6.82078 1.23757 4.74333 0.799108 3.05555 1.77355C1.36776 2.748 0.708761 4.76635 1.58363 6.28167Z" fill="#EA4335"/>
<path fill-rule="evenodd" clip-rule="evenodd" d="M25.4784 7.71914L19.7487 11.0275C18.0677 11.9978 15.8987 11.4167 14.928 9.7358C13.9577 8.05488 14.5388 5.88585 16.2197 4.91552L21.9494 1.60718L25.4784 7.71914Z" fill="#5CA47B"/>
<path d="M32.598 13.7264L26.2618 2.75178C25.387 1.23646 23.3095 0.797999 21.6217 1.77244C19.9339 2.74689 19.2749 4.76524 20.1498 6.28056L26.486 17.2552C27.3609 18.7705 29.4383 19.2089 31.1261 18.2345C32.8139 17.2601 33.4729 15.2417 32.598 13.7264Z" fill="#FBBC05"/>
</svg>
