<svg width="13" height="14" viewBox="0 0 13 14" fill="none" xmlns="http://www.w3.org/2000/svg">
<path fill-rule="evenodd" clip-rule="evenodd" d="M11.3116 13.0975C11.6666 13.4525 12.2422 13.4525 12.5972 13.0975C12.9522 12.7425 12.9522 12.1668 12.5972 11.8118L7.78552 7.00012L12.5972 2.1884C12.9522 1.83337 12.9522 1.25777 12.5972 0.902752C12.2422 0.54773 11.6666 0.54773 11.3116 0.902752L6.49988 5.71447L1.68815 0.902742C1.33312 0.547719 0.75752 0.547719 0.402498 0.902742C0.0474751 1.25776 0.0474751 1.83337 0.402498 2.18839L5.21423 7.00012L0.402497 11.8118C0.047475 12.1668 0.047475 12.7425 0.402497 13.0975C0.75752 13.4526 1.33312 13.4526 1.68815 13.0975L6.49988 8.28577L11.3116 13.0975Z" fill="black"/>
</svg>
