<svg width="41" height="14" viewBox="0 0 41 14" fill="none" xmlns="http://www.w3.org/2000/svg">
<path d="M24.393 11.6379L20.3378 4.61414C19.778 3.64446 20.1997 2.35283 21.2798 1.72924C22.3599 1.10564 23.6893 1.38625 24.2491 2.35593L28.3043 9.37973C28.8642 10.3494 28.4425 11.641 27.3624 12.2646C26.2823 12.8882 24.9528 12.6076 24.393 11.6379Z" fill="#4285F4" stroke="#DBDEE7" stroke-width="0.000451481"/>
<path d="M33.5932 8.04781H37.8272C39.0692 8.04781 40.0853 9.0639 40.0853 10.3059C40.0853 11.5479 39.0692 12.564 37.8272 12.564H33.5932V8.04781Z" fill="#34A853" stroke="#DBDEE7" stroke-width="0.000902339"/>
<path d="M31.6394 11.6438L27.5843 4.62C27.0244 3.65032 27.4461 2.3587 28.5262 1.7351C29.6063 1.1115 30.9357 1.39211 31.4956 2.3618L35.5508 9.38559C36.1106 10.3553 35.6889 11.6469 34.6088 12.2705C33.5287 12.8941 32.1993 12.6135 31.6394 11.6438Z" fill="#EA4335" stroke="#DBDEE7" stroke-width="0.000451481"/>
<path d="M5.22929 11.6438L1.17411 4.62C0.614261 3.65032 1.03596 2.3587 2.11606 1.7351C3.19616 1.1115 4.52558 1.39212 5.08543 2.3618L9.14061 9.38559C9.70046 10.3553 9.27877 11.6469 8.19866 12.2705C7.11856 12.8941 5.78914 12.6135 5.22929 11.6438Z" fill="#EA4335" stroke="#DBDEE7" stroke-width="0.000451481"/>
<path d="M14.2078 1.62903L16.4659 5.53993L12.7993 7.65706C11.7237 8.27795 10.3358 7.90612 9.71465 6.83054C9.09377 5.75496 9.46559 4.36705 10.5412 3.74616L14.2078 1.62903Z" fill="#5CA47B" stroke="#DBDEE7" stroke-width="0.000902339"/>
<path d="M16.9674 2.36109L21.0225 9.38488C21.5824 10.3546 21.1607 11.6462 20.0806 12.2698C19.0005 12.8934 17.6711 12.6128 17.1112 11.6431L13.056 4.61929C12.4962 3.64961 12.9179 2.35799 13.998 1.73439C15.0781 1.11079 16.4075 1.39141 16.9674 2.36109Z" fill="#FBBC05" stroke="#DBDEE7" stroke-width="0.000451481"/>
</svg>
