<svg width="64" height="64" viewBox="0 0 64 64" fill="none" xmlns="http://www.w3.org/2000/svg">
<g filter="url(#filter0_d_815_321)">
<circle cx="32" cy="30" r="28" fill="black"/>
<path fill-rule="evenodd" clip-rule="evenodd" d="M28.0864 26.7854C27.7385 26.4375 27.7385 25.8734 28.0864 25.5255L31.6495 21.9624L31.65 21.9619C31.7354 21.8765 31.8339 21.812 31.939 21.7686C32.044 21.725 32.1592 21.7009 32.28 21.7009C32.4003 21.7009 32.5151 21.7248 32.6198 21.768C32.6718 21.7895 32.7222 21.816 32.7702 21.8478C32.8196 21.8804 32.8665 21.9184 32.91 21.9619L32.9105 21.9624L36.4736 25.5255C36.8215 25.8734 36.8215 26.4375 36.4736 26.7854C36.1257 27.1333 35.5616 27.1333 35.2137 26.7854L33.1709 24.7427V36.8464C33.1709 37.3384 32.772 37.7373 32.28 37.7373C31.788 37.7373 31.3891 37.3384 31.3891 36.8464V24.7427L29.3463 26.7854C28.9984 27.1333 28.4343 27.1333 28.0864 26.7854Z" fill="white"/>
</g>
<defs>
<filter id="filter0_d_815_321" x="0" y="0" width="64" height="64" filterUnits="userSpaceOnUse" color-interpolation-filters="sRGB">
<feFlood flood-opacity="0" result="BackgroundImageFix"/>
<feColorMatrix in="SourceAlpha" type="matrix" values="0 0 0 0 0 0 0 0 0 0 0 0 0 0 0 0 0 0 127 0" result="hardAlpha"/>
<feOffset dy="2"/>
<feGaussianBlur stdDeviation="2"/>
<feComposite in2="hardAlpha" operator="out"/>
<feColorMatrix type="matrix" values="0 0 0 0 0 0 0 0 0 0 0 0 0 0 0 0 0 0 0.25 0"/>
<feBlend mode="normal" in2="BackgroundImageFix" result="effect1_dropShadow_815_321"/>
<feBlend mode="normal" in="SourceGraphic" in2="effect1_dropShadow_815_321" result="shape"/>
</filter>
</defs>
</svg>
