<svg width="23" height="22" viewBox="0 0 23 22" fill="none" xmlns="http://www.w3.org/2000/svg">
<path fill-rule="evenodd" clip-rule="evenodd" d="M5.84072 4.03161C5.37506 4.12041 4.87697 4.51207 4.66605 4.95529C4.50755 5.28835 4.46078 5.6511 4.53325 5.98508C4.6091 6.33458 4.73633 6.58858 4.95169 6.8203C5.99652 7.94464 7.83916 7.21869 7.83916 5.68274C7.83916 4.61153 6.89413 3.83074 5.84072 4.03161ZM14.2968 8.50033C14.137 8.5346 13.9295 8.58917 13.8355 8.62152C13.2647 8.81822 12.6922 9.25792 12.3821 9.73777L12.2483 9.94475L12.239 9.30002L12.2296 8.65528L10.8373 8.64636L9.44501 8.63745V13.3187V18H10.8971H12.3492L12.3495 15.4973C12.3498 13.0022 12.3649 12.595 12.4728 12.1745C12.5985 11.6842 12.9006 11.288 13.2802 11.1155C13.669 10.9387 14.2942 10.9165 14.6879 11.0655C15.0641 11.2078 15.3476 11.5605 15.4717 12.0406C15.5753 12.4411 15.595 12.9931 15.5951 15.4802L15.5951 17.9658H17.0472H18.4993L18.499 15.241C18.4986 12.4194 18.4777 11.7983 18.3601 11.1324C18.0798 9.54366 17.2717 8.70435 15.8105 8.48407C15.3492 8.41454 14.6621 8.42192 14.2968 8.50033ZM4.72995 13.3191V18H6.18205H7.63415V13.3191V8.6382H6.18205H4.72995V13.3191Z" fill="black"/>
<mask id="mask0_815_317" style="mask-type:alpha" maskUnits="userSpaceOnUse" x="4" y="4" width="15" height="14">
<path fill-rule="evenodd" clip-rule="evenodd" d="M11.5 9.6V12.4H15.4606C14.8824 14.0296 13.3256 15.2 11.5 15.2C9.1844 15.2 7.3 13.3156 7.3 11C7.3 8.6844 9.1844 6.8 11.5 6.8C12.5038 6.8 13.4698 7.1598 14.2202 7.8136L16.0598 5.7024C14.7998 4.6048 13.1814 4 11.5 4C7.6402 4 4.5 7.1402 4.5 11C4.5 14.8598 7.6402 18 11.5 18C15.3598 18 18.5 14.8598 18.5 11V9.6H11.5Z" fill="white"/>
</mask>
<g mask="url(#mask0_815_317)">
</g>
</svg>
