<svg width="23" height="22" viewBox="0 0 23 22" fill="none" xmlns="http://www.w3.org/2000/svg">
<path fill-rule="evenodd" clip-rule="evenodd" d="M20.5 5.63381C19.8743 5.91106 19.2029 6.09908 18.4975 6.18303C19.2178 5.75172 19.7691 5.06761 20.0304 4.25494C19.3548 4.65436 18.6091 4.94439 17.8144 5.10161C17.1781 4.42281 16.2731 4 15.2692 4C13.3432 4 11.7816 5.56158 11.7816 7.48647C11.7816 7.75947 11.8124 8.02611 11.8719 8.28108C8.974 8.13553 6.40431 6.74711 4.68444 4.63736C4.38381 5.15153 4.21278 5.75064 4.21278 6.39017C4.21278 7.60014 4.82892 8.66775 5.76375 9.29236C5.19222 9.27325 4.65469 9.11603 4.18411 8.85469V8.89825C4.18411 10.5873 5.38664 11.997 6.98114 12.3178C6.689 12.3964 6.38094 12.44 6.06225 12.44C5.83706 12.44 5.61928 12.4177 5.40575 12.3752C5.84978 13.7615 7.13731 14.7696 8.66278 14.7972C7.46981 15.7321 5.96558 16.2876 4.33178 16.2876C4.05028 16.2876 3.773 16.2706 3.5 16.2398C5.04353 17.231 6.876 17.8089 8.8455 17.8089C15.2607 17.8089 18.7674 12.4952 18.7674 7.88697L18.7557 7.4355C19.4409 6.94681 20.0336 6.33281 20.5 5.63381Z" fill="black"/>
<mask id="mask0_815_314" style="mask-type:alpha" maskUnits="userSpaceOnUse" x="3" y="4" width="18" height="14">
<path fill-rule="evenodd" clip-rule="evenodd" d="M20.5 5.63381C19.8743 5.91106 19.2029 6.09908 18.4975 6.18303C19.2178 5.75172 19.7691 5.06761 20.0304 4.25494C19.3548 4.65436 18.6091 4.94439 17.8144 5.10161C17.1781 4.42281 16.2731 4 15.2692 4C13.3432 4 11.7816 5.56158 11.7816 7.48647C11.7816 7.75947 11.8124 8.02611 11.8719 8.28108C8.974 8.13553 6.40431 6.74711 4.68444 4.63736C4.38381 5.15153 4.21278 5.75064 4.21278 6.39017C4.21278 7.60014 4.82892 8.66775 5.76375 9.29236C5.19222 9.27325 4.65469 9.11603 4.18411 8.85469V8.89825C4.18411 10.5873 5.38664 11.997 6.98114 12.3178C6.689 12.3964 6.38094 12.44 6.06225 12.44C5.83706 12.44 5.61928 12.4177 5.40575 12.3752C5.84978 13.7615 7.13731 14.7696 8.66278 14.7972C7.46981 15.7321 5.96558 16.2876 4.33178 16.2876C4.05028 16.2876 3.773 16.2706 3.5 16.2398C5.04353 17.231 6.876 17.8089 8.8455 17.8089C15.2607 17.8089 18.7674 12.4952 18.7674 7.88697L18.7557 7.4355C19.4409 6.94681 20.0336 6.33281 20.5 5.63381Z" fill="white"/>
</mask>
<g mask="url(#mask0_815_314)">
</g>
</svg>
