<svg width="85" height="36" viewBox="0 0 85 36" fill="none" xmlns="http://www.w3.org/2000/svg">
<path d="M10.9446 16H9.53551C9.45218 15.5947 9.30635 15.2386 9.09801 14.9318C8.89347 14.625 8.64347 14.3674 8.34801 14.1591C8.05634 13.947 7.73248 13.7879 7.37642 13.6818C7.02036 13.5758 6.64915 13.5227 6.26278 13.5227C5.55824 13.5227 4.91998 13.7008 4.34801 14.0568C3.77983 14.4129 3.32718 14.9375 2.99006 15.6307C2.65672 16.3239 2.49006 17.1742 2.49006 18.1818C2.49006 19.1894 2.65672 20.0398 2.99006 20.733C3.32718 21.4261 3.77983 21.9508 4.34801 22.3068C4.91998 22.6629 5.55824 22.8409 6.26278 22.8409C6.64915 22.8409 7.02036 22.7879 7.37642 22.6818C7.73248 22.5758 8.05634 22.4186 8.34801 22.2102C8.64347 21.9981 8.89347 21.7386 9.09801 21.4318C9.30635 21.1212 9.45218 20.7652 9.53551 20.3636H10.9446C10.8385 20.9583 10.6454 21.4905 10.3651 21.9602C10.0848 22.4299 9.73627 22.8295 9.3196 23.1591C8.90294 23.4848 8.43513 23.733 7.91619 23.9034C7.40104 24.0739 6.84991 24.1591 6.26278 24.1591C5.27036 24.1591 4.38778 23.9167 3.61506 23.4318C2.84233 22.947 2.23438 22.2576 1.79119 21.3636C1.34801 20.4697 1.12642 19.4091 1.12642 18.1818C1.12642 16.9545 1.34801 15.8939 1.79119 15C2.23438 14.1061 2.84233 13.4167 3.61506 12.9318C4.38778 12.447 5.27036 12.2045 6.26278 12.2045C6.84991 12.2045 7.40104 12.2898 7.91619 12.4602C8.43513 12.6307 8.90294 12.8807 9.3196 13.2102C9.73627 13.536 10.0848 13.9337 10.3651 14.4034C10.6454 14.8693 10.8385 15.4015 10.9446 16ZM14.3807 12.3636V24H13.0398V12.3636H14.3807ZM20.3821 24.1818C19.5942 24.1818 18.9029 23.9943 18.3082 23.6193C17.7173 23.2443 17.2552 22.7197 16.9219 22.0455C16.5923 21.3712 16.4276 20.5833 16.4276 19.6818C16.4276 18.7727 16.5923 17.9792 16.9219 17.3011C17.2552 16.6231 17.7173 16.0966 18.3082 15.7216C18.9029 15.3466 19.5942 15.1591 20.3821 15.1591C21.17 15.1591 21.8594 15.3466 22.4503 15.7216C23.045 16.0966 23.5071 16.6231 23.8366 17.3011C24.17 17.9792 24.3366 18.7727 24.3366 19.6818C24.3366 20.5833 24.17 21.3712 23.8366 22.0455C23.5071 22.7197 23.045 23.2443 22.4503 23.6193C21.8594 23.9943 21.17 24.1818 20.3821 24.1818ZM20.3821 22.9773C20.9806 22.9773 21.473 22.8239 21.8594 22.517C22.2457 22.2102 22.5317 21.8068 22.7173 21.3068C22.9029 20.8068 22.9957 20.2652 22.9957 19.6818C22.9957 19.0985 22.9029 18.5549 22.7173 18.0511C22.5317 17.5473 22.2457 17.1402 21.8594 16.8295C21.473 16.5189 20.9806 16.3636 20.3821 16.3636C19.7836 16.3636 19.2912 16.5189 18.9048 16.8295C18.5185 17.1402 18.2325 17.5473 18.0469 18.0511C17.8613 18.5549 17.7685 19.0985 17.7685 19.6818C17.7685 20.2652 17.8613 20.8068 18.0469 21.3068C18.2325 21.8068 18.5185 22.2102 18.9048 22.517C19.2912 22.8239 19.7836 22.9773 20.3821 22.9773ZM32.5653 17.2273L31.3608 17.5682C31.285 17.3674 31.1733 17.1723 31.0256 16.983C30.8816 16.7898 30.6847 16.6307 30.4347 16.5057C30.1847 16.3807 29.8646 16.3182 29.4744 16.3182C28.9403 16.3182 28.4953 16.4413 28.1392 16.6875C27.7869 16.9299 27.6108 17.2386 27.6108 17.6136C27.6108 17.947 27.732 18.2102 27.9744 18.4034C28.2169 18.5966 28.5956 18.7576 29.1108 18.8864L30.4062 19.2045C31.1866 19.3939 31.768 19.6837 32.1506 20.0739C32.5331 20.4602 32.7244 20.9583 32.7244 21.5682C32.7244 22.0682 32.5805 22.5152 32.2926 22.9091C32.0085 23.303 31.6108 23.6136 31.0994 23.8409C30.5881 24.0682 29.9934 24.1818 29.3153 24.1818C28.4252 24.1818 27.6884 23.9886 27.1051 23.6023C26.5218 23.2159 26.1525 22.6515 25.9972 21.9091L27.2699 21.5909C27.3911 22.0606 27.6203 22.4129 27.9574 22.6477C28.2983 22.8826 28.7434 23 29.2926 23C29.9176 23 30.4138 22.8674 30.7812 22.6023C31.1525 22.3333 31.3381 22.0114 31.3381 21.6364C31.3381 21.3333 31.232 21.0795 31.0199 20.875C30.8078 20.6667 30.482 20.5114 30.0426 20.4091L28.5881 20.0682C27.7888 19.8788 27.2017 19.5852 26.8267 19.1875C26.4555 18.786 26.2699 18.2841 26.2699 17.6818C26.2699 17.1894 26.4081 16.7538 26.6847 16.375C26.965 15.9962 27.3456 15.6989 27.8267 15.483C28.3116 15.267 28.8608 15.1591 29.4744 15.1591C30.3381 15.1591 31.0161 15.3485 31.5085 15.7273C32.0047 16.1061 32.357 16.6061 32.5653 17.2273ZM38.402 24.1818C37.5611 24.1818 36.8357 23.9962 36.2259 23.625C35.6198 23.25 35.152 22.7273 34.8224 22.0568C34.4967 21.3826 34.3338 20.5985 34.3338 19.7045C34.3338 18.8106 34.4967 18.0227 34.8224 17.3409C35.152 16.6553 35.6103 16.1212 36.1974 15.7386C36.7884 15.3523 37.4777 15.1591 38.2656 15.1591C38.7202 15.1591 39.169 15.2348 39.6122 15.3864C40.0554 15.5379 40.4588 15.7841 40.8224 16.125C41.1861 16.4621 41.4759 16.9091 41.6918 17.4659C41.9077 18.0227 42.0156 18.7083 42.0156 19.5227V20.0909H35.2884V18.9318H40.652C40.652 18.4394 40.5535 18 40.3565 17.6136C40.1634 17.2273 39.8868 16.9223 39.527 16.6989C39.1709 16.4754 38.7505 16.3636 38.2656 16.3636C37.7315 16.3636 37.2694 16.4962 36.8793 16.7614C36.4929 17.0227 36.1955 17.3636 35.9872 17.7841C35.7789 18.2045 35.6747 18.6553 35.6747 19.1364V19.9091C35.6747 20.5682 35.7884 21.1269 36.0156 21.5852C36.2467 22.0398 36.5668 22.3864 36.9759 22.625C37.3849 22.8598 37.8603 22.9773 38.402 22.9773C38.7543 22.9773 39.0724 22.928 39.3565 22.8295C39.6444 22.7273 39.8925 22.5758 40.1009 22.375C40.3092 22.1705 40.4702 21.9167 40.5838 21.6136L41.8793 21.9773C41.7429 22.4167 41.5137 22.803 41.1918 23.1364C40.8698 23.4659 40.4721 23.7235 39.9986 23.9091C39.5251 24.0909 38.9929 24.1818 38.402 24.1818Z" fill="black"/>
<rect x="49" width="36" height="36" rx="18" fill="black"/>
<path fill-rule="evenodd" clip-rule="evenodd" d="M72.0525 24.4024C72.4252 24.7752 73.0297 24.7752 73.4024 24.4024C73.7752 24.0297 73.7752 23.4252 73.4024 23.0525L68.3501 18.0002L73.4024 12.9479C73.7752 12.5751 73.7752 11.9707 73.4024 11.598C73.0297 11.2252 72.4252 11.2252 72.0525 11.598L67.0002 16.6503L61.9479 11.5979C61.5751 11.2252 60.9707 11.2252 60.5979 11.5979C60.2252 11.9707 60.2252 12.5751 60.5979 12.9479L65.6503 18.0002L60.5979 23.0525C60.2252 23.4252 60.2252 24.0297 60.5979 24.4024C60.9707 24.7753 61.5751 24.7753 61.9479 24.4024L67.0002 19.3501L72.0525 24.4024Z" fill="white"/>
</svg>
