<svg width="52" height="52" viewBox="0 0 52 52" fill="none" xmlns="http://www.w3.org/2000/svg">
<circle cx="26" cy="26" r="25" stroke="black"/>
<path fill-rule="evenodd" clip-rule="evenodd" d="M14.9988 20.0662C14.7245 20.1682 14.4148 20.4039 14.2683 20.6221C13.9836 21.0464 14.0002 20.6971 14.0002 26.2515V31.3509L14.1683 31.6579C14.2793 31.8607 14.4148 32.0248 14.5675 32.1416C15.0129 32.4825 14.6629 32.4636 20.2731 32.4496L25.3191 32.4369L25.5124 32.333C25.6188 32.2758 25.772 32.1729 25.8529 32.1045L26.0001 31.98L26.1473 32.1045C26.2282 32.1729 26.3814 32.2758 26.4878 32.333L26.6811 32.4369L31.7271 32.4496C37.3373 32.4636 36.9873 32.4825 37.4327 32.1416C37.5854 32.0248 37.7209 31.8607 37.8319 31.6579L38 31.3509V26.2278V21.1048L37.8319 20.7978C37.7209 20.595 37.5854 20.4309 37.4327 20.3141C36.9873 19.9732 37.3373 19.9921 31.7271 20.0061L26.6811 20.0188L26.4878 20.1227C26.3814 20.1799 26.2282 20.2827 26.1473 20.3512L26.0001 20.4757L25.8529 20.3512C25.772 20.2827 25.6188 20.1799 25.5124 20.1227L25.3191 20.0188L20.2467 20.0098C16.0302 20.0024 15.1447 20.012 14.9988 20.0662ZM25.2373 20.892C25.5302 21.0716 25.577 21.2155 25.5772 21.9368L25.5774 22.58L25.2134 22.6016C24.7727 22.6279 24.4931 22.7432 24.1883 23.0247C23.3605 23.7888 23.5529 25.1197 24.5676 25.6492C24.7474 25.7431 24.8933 25.7768 25.1899 25.7933L25.5774 25.8147L25.5775 26.5525C25.5775 27.4055 25.629 27.5867 25.8921 27.6613C26.0155 27.6963 26.0847 27.6817 26.2787 27.5797C26.5461 27.4391 26.8683 27.4157 27.0709 27.5221C27.4136 27.7021 27.5986 28.0901 27.5063 28.435C27.3612 28.9767 26.817 29.2094 26.3189 28.9428C26.0425 28.795 25.9001 28.7939 25.7327 28.9387L25.6009 29.0525L25.5774 30.1332C25.5515 31.3263 25.5389 31.3788 25.2344 31.5655C25.0881 31.6551 24.9585 31.6575 20.2061 31.6577L15.328 31.6579L15.1455 31.5547C15.0292 31.489 14.9289 31.3808 14.8691 31.2565C14.777 31.0653 14.7751 30.965 14.7751 26.2278C14.7751 21.4974 14.7771 21.3901 14.8687 21.2C14.9259 21.0811 15.0308 20.9658 15.1387 20.9029L15.3152 20.8L20.1997 20.7991C24.9919 20.7982 25.0872 20.8 25.2373 20.892ZM36.8489 20.8854C36.9447 20.9371 37.0552 21.0564 37.1182 21.1762L37.2251 21.3793V26.2278V31.0764L37.1182 31.2795C36.9033 31.6881 37.3277 31.6579 31.8012 31.6577C27.0093 31.6575 26.913 31.6557 26.7629 31.5637C26.47 31.3841 26.4232 31.2402 26.423 30.5189L26.4228 29.8757L26.7868 29.8541C27.2275 29.8278 27.5071 29.7124 27.8119 29.431C28.2402 29.0356 28.4219 28.4333 28.2812 27.8758C28.097 27.1458 27.5611 26.7038 26.8103 26.6623L26.4228 26.641L26.4227 25.9032C26.4226 25.0502 26.3712 24.869 26.1081 24.7944C25.9846 24.7594 25.9155 24.774 25.7215 24.876C25.3087 25.093 24.941 25.033 24.6513 24.7012C24.4007 24.4143 24.4095 23.9879 24.6724 23.6738C24.9207 23.3771 25.3112 23.3148 25.6813 23.5128C25.9576 23.6607 26.1 23.6618 26.2675 23.517L26.3993 23.4032L26.4228 22.3224C26.4487 21.1294 26.4613 21.0769 26.7658 20.8902C26.9121 20.8006 27.0418 20.7982 31.8012 20.798C36.4699 20.7978 36.6936 20.8017 36.8489 20.8854ZM20.9126 23.3133C18.5403 26.9914 16.8886 29.5788 16.8886 29.617C16.8886 29.6866 17.5068 30.0641 17.5479 30.0196C17.6661 29.8915 21.9086 23.2353 21.8907 23.2062C21.8785 23.1864 21.7304 23.0831 21.5615 22.9767L21.2545 22.7831L20.9126 23.3133ZM33.9945 22.9103C33.9444 22.982 33.0096 24.4324 31.9172 26.1334C30.8247 27.8344 29.8715 29.3138 29.7989 29.421L29.6669 29.6159L29.9994 29.8382C30.1822 29.9604 30.3478 30.0427 30.3674 30.0211C30.399 29.9859 34.6258 23.406 34.7057 23.2675C34.733 23.2201 34.4589 22.9993 34.1406 22.8122C34.1088 22.7936 34.047 22.8351 33.9945 22.9103ZM17.0632 23.4438C16.6432 23.5493 16.3187 23.8194 16.1298 24.2207C15.8898 24.7309 15.9687 25.314 16.3345 25.7317C16.71 26.1605 17.2744 26.3219 17.8109 26.1537C18.1699 26.0411 18.5721 25.6547 18.6886 25.3105C18.7874 25.0182 18.7894 24.6101 18.6933 24.3266C18.4835 23.7075 17.7009 23.2837 17.0632 23.4438ZM29.849 23.4565C28.8532 23.7386 28.4811 24.9605 29.1563 25.7317C29.6809 26.3308 30.5402 26.3883 31.1213 25.8631C31.4476 25.5681 31.588 25.2653 31.5886 24.8551C31.5892 24.4547 31.487 24.1607 31.2551 23.8959C30.9153 23.5077 30.3223 23.3224 29.849 23.4565ZM17.7013 24.3005C17.9539 24.4337 18.0515 24.9289 17.8708 25.16C17.6566 25.4337 17.337 25.4967 17.0723 25.3175C16.7786 25.1184 16.7074 24.7669 16.902 24.476C17.0695 24.2255 17.4151 24.1497 17.7013 24.3005ZM30.5231 24.3005C30.7757 24.4337 30.8734 24.9289 30.6926 25.16C30.4137 25.5165 29.9348 25.5008 29.7086 25.1277C29.384 24.5927 29.9626 24.0051 30.5231 24.3005ZM21.3438 26.299C21.0538 26.3926 20.6608 26.7531 20.5218 27.0532C20.3893 27.3394 20.3735 27.8 20.4851 28.1291C20.5869 28.4297 20.8784 28.7464 21.1978 28.9035C21.4128 29.0093 21.5288 29.0346 21.7966 29.0346C22.5457 29.0346 23.1172 28.4937 23.1715 27.7333C23.2128 27.1557 22.9261 26.6458 22.4129 26.3839C22.1155 26.2321 21.6627 26.1962 21.3438 26.299ZM34.1587 26.3062C33.8832 26.402 33.5551 26.6848 33.3892 26.9694C33.2252 27.2506 33.1854 27.7594 33.3001 28.1067C33.4052 28.4249 33.6918 28.7422 34.0196 28.9035C34.9202 29.3465 36.0037 28.67 36.0039 27.6646C36.0039 27.2847 35.8975 26.9889 35.6657 26.724C35.2923 26.2976 34.6752 26.1265 34.1587 26.3062ZM22.0593 27.1037C22.456 27.3099 22.4889 27.8963 22.1175 28.141C21.9678 28.2396 21.658 28.2535 21.5003 28.1686C21.2426 28.0299 21.1222 27.5546 21.2855 27.3203C21.4688 27.0572 21.7945 26.966 22.0593 27.1037ZM34.9278 27.1382C35.2217 27.3373 35.2928 27.6888 35.0981 27.9797C34.7758 28.4613 34.0313 28.2133 34.0313 27.6243C34.0313 27.4001 34.1208 27.2496 34.3304 27.1211C34.5262 27.001 34.7341 27.007 34.9278 27.1382Z" fill="black"/>
</svg>
