<svg width="52" height="52" viewBox="0 0 52 52" fill="none" xmlns="http://www.w3.org/2000/svg">
<circle cx="26.2894" cy="26" r="25" stroke="black"/>
<path fill-rule="evenodd" clip-rule="evenodd" d="M31.7548 14.0282C31.5892 14.0949 31.5798 14.22 31.556 16.6849L31.5326 19.1151L30.1263 19.8801C29.3527 20.3009 28.704 20.6354 28.6847 20.6234C28.6653 20.6115 28.6494 20.571 28.6494 20.5334C28.6494 20.3964 28.0913 19.3606 27.9389 19.2149C27.5692 18.8612 27.1166 18.8133 26.5747 19.0706C25.9782 19.3538 25.6975 19.7721 25.7584 20.2867C25.7928 20.5774 26.3082 21.5902 26.5134 21.7704L26.6593 21.8985L26.5342 22.1488C26.3518 22.5139 26.1457 23.2441 26.1831 23.393C26.2024 23.4702 26.2728 23.5445 26.3705 23.5911C26.5058 23.6556 26.5453 23.657 26.6623 23.6015C26.7741 23.5484 26.8165 23.476 26.906 23.1856C27.0908 22.586 27.1576 22.4276 27.2844 22.2886C27.3544 22.2119 28.3837 21.6242 29.6808 20.9203C32.1583 19.5757 32.0678 19.6092 31.9063 20.0955C31.7579 20.5421 31.5122 20.7341 29.6574 21.8522C28.7291 22.4117 27.9433 22.9025 27.911 22.9428C27.8788 22.9831 27.8524 23.0843 27.8524 23.1678C27.8524 23.3515 28.0491 23.5319 28.2147 23.5003C28.2748 23.4888 28.3198 23.5026 28.3179 23.532C28.316 23.5607 28.1842 23.9626 28.0249 24.425L27.7352 25.2659L26.9641 25.5838C26.54 25.7587 26.1848 25.8935 26.1748 25.8835C26.1647 25.8735 26.2356 25.5787 26.3321 25.2284C26.4786 24.697 26.4988 24.572 26.454 24.4737C26.351 24.2476 25.9923 24.2163 25.8616 24.422C25.8267 24.4769 25.6782 24.9437 25.5315 25.4594C25.2412 26.4802 25.247 26.4344 25.1391 28.5769L25.0954 29.4442L24.3346 31.0382C23.9162 31.9149 23.5529 32.6585 23.5274 32.6907C23.4941 32.7328 23.2874 32.7493 22.7928 32.7493C22.1462 32.7493 22.0897 32.7567 21.8608 32.8708C21.3482 33.1262 21.1954 33.4662 21.1954 34.3505V34.9504L21.0751 34.9047C21.0049 34.878 20.2426 34.859 19.2453 34.859C17.3409 34.859 17.3385 34.8593 17.0057 35.1777C16.6864 35.4831 16.6501 35.6189 16.6489 36.5115L16.6479 37.2968H16.1536C15.6911 37.2968 15.6517 37.3042 15.5441 37.4119C15.3974 37.5585 15.3974 37.7383 15.5441 37.8849L15.6591 38H26.1544H36.6497L36.7517 37.8915C36.887 37.7474 36.8841 37.5294 36.7451 37.3987C36.647 37.3066 36.5861 37.2968 36.1122 37.2968H35.5878V32.6179V27.939L35.4664 27.6953C35.3996 27.5613 35.2689 27.389 35.176 27.3124C34.8644 27.0556 34.7049 27.0299 33.4229 27.0299H32.2592V23.9944V20.9589L32.4464 20.5838C32.6681 20.1396 32.7442 19.7322 32.684 19.3111C32.632 18.9479 32.5782 18.848 32.4009 18.7862C32.2627 18.7381 32.2592 18.7293 32.2592 18.4297V18.1225H34.4173C36.8319 18.1225 36.8225 18.1236 36.9681 17.8168C37.1152 17.5069 37.0349 17.3675 36.3849 16.8047C35.9566 16.4339 35.837 16.3064 35.8841 16.2707C35.9182 16.2449 36.1712 16.0263 36.4464 15.7848C37.0204 15.2811 37.1108 15.1192 36.9762 14.8355C36.8297 14.5267 36.9161 14.5375 34.4744 14.5227L32.2592 14.5092V14.355C32.2592 14.0993 31.9981 13.9302 31.7548 14.0282ZM35.9628 15.2628C35.9628 15.2886 35.947 15.31 35.9277 15.3104C35.9083 15.3109 35.7062 15.4849 35.4785 15.6972C35.1048 16.0456 35.0619 16.1032 35.0378 16.2891L35.0111 16.4951L35.4987 16.9575L35.9863 17.42L34.1345 17.4079L32.2827 17.3959L32.27 16.3656C32.263 15.7989 32.2677 15.3084 32.2802 15.2756C32.3095 15.1995 35.9628 15.1868 35.9628 15.2628ZM27.4742 19.7464C27.6262 19.9397 27.9931 20.687 27.9931 20.8034C27.9931 20.9705 27.8716 21.1116 27.6163 21.2409C27.3581 21.3718 27.1674 21.3884 27.0308 21.292C26.9799 21.2562 26.8245 20.9954 26.6854 20.7127C26.3974 20.1271 26.3943 20.0308 26.6573 19.8303C26.995 19.5727 27.3119 19.5401 27.4742 19.7464ZM31.556 24.2873V27.0299L31.4271 27.0303C31.2414 27.031 30.8539 27.2249 30.6792 27.4045C30.3685 27.7239 30.362 27.7594 30.3468 29.2216C30.3392 29.9499 30.3181 30.5458 30.2999 30.5457C30.2817 30.5455 30.1884 30.5236 30.0926 30.497C29.9369 30.4538 29.9206 30.435 29.9407 30.3215C30.0089 29.9346 30.2016 28.2332 30.2027 28.0085C30.2046 27.6217 30.0771 27.4138 29.1953 26.3661L28.4196 25.4445L28.8418 24.1786L29.2641 22.9128L30.1405 22.3837C30.6225 22.0927 31.1224 21.786 31.2513 21.7021C31.3802 21.6182 31.5015 21.5485 31.5209 21.5472C31.5402 21.5459 31.556 22.7789 31.556 24.2873ZM27.2634 27.7819C27.0072 29.1791 26.9403 29.4696 26.8428 29.6079C26.779 29.6984 26.2259 30.4369 25.6136 31.2492C24.6387 32.5426 24.3364 32.8882 24.3364 32.7097C24.3364 32.6841 24.6538 31.9953 25.0417 31.179C25.8519 29.4741 25.7923 29.7092 25.8864 27.8503C25.9164 27.2572 25.9543 26.7657 25.9708 26.7579C26.1119 26.6913 27.5501 26.1066 27.5579 26.1126C27.5635 26.1169 27.431 26.8681 27.2634 27.7819ZM28.8156 27.0089C29.4568 27.7715 29.4933 27.8283 29.4933 28.0643C29.4933 28.2424 29.2993 29.9118 29.2336 30.2998C29.2126 30.4233 29.1859 30.4522 29.0927 30.4522C29.0294 30.4522 28.977 30.4469 28.9762 30.4405C28.9754 30.434 28.9261 29.9541 28.8665 29.3739C28.7912 28.641 28.7334 28.2714 28.6771 28.1628C28.6282 28.0684 28.4791 27.932 28.3009 27.8184L28.0057 27.6302L28.0643 27.3183C28.0965 27.1468 28.1491 26.8494 28.181 26.6575C28.2269 26.3811 28.25 26.3232 28.2919 26.3787C28.3209 26.4173 28.5566 26.7009 28.8156 27.0089ZM34.6181 27.7855C34.6744 27.8142 34.7569 27.8828 34.8015 27.9378C34.877 28.031 34.8826 28.3517 34.8835 32.6673L34.8846 37.2968H32.9625H31.0403V36.2154C31.0403 34.94 31.0192 34.8613 30.677 34.8597C30.5864 34.8593 30.4867 34.897 30.4309 34.9527C30.3423 35.0413 30.3371 35.109 30.3371 36.1716V37.2968H28.3899H26.4426L26.456 34.4019C26.4708 31.223 26.457 31.3682 26.7574 31.2257C26.978 31.121 29.8548 31.1217 30.0574 31.2265C30.3135 31.3589 30.3371 31.4717 30.3371 32.5616C30.3371 33.5491 30.3373 33.5508 30.4522 33.6656C30.5155 33.7289 30.6219 33.7807 30.6887 33.7807C30.7555 33.7807 30.862 33.7289 30.9252 33.6656L31.0403 33.5506V30.8012V28.0519L31.1997 27.8925L31.3591 27.7331H32.9374C34.0075 27.7331 34.5487 27.75 34.6181 27.7855ZM27.9986 28.4501C28.0579 28.4953 28.095 28.7172 28.1689 29.4683C28.2208 29.9965 28.2581 30.4347 28.2517 30.442C28.2453 30.4492 27.9854 30.4492 27.6742 30.442L27.1082 30.4287L27.3368 30.124C27.5843 29.7939 27.6576 29.5863 27.7874 28.8465C27.8316 28.5951 27.8801 28.3901 27.8952 28.3909C27.9104 28.3917 27.9569 28.4184 27.9986 28.4501ZM25.7428 32.5421V32.8037L25.5904 32.771C25.5067 32.7531 25.4306 32.7316 25.4214 32.7233C25.4043 32.7078 25.6994 32.2805 25.7273 32.2805C25.7358 32.2805 25.7428 32.3983 25.7428 32.5421ZM25.6058 33.5896L25.7428 33.7266V35.5117V37.2968H23.8207H21.8986V35.5591C21.8986 33.7516 21.9041 33.697 22.1033 33.5356C22.1937 33.4624 22.3598 33.4545 23.836 33.4536L25.4687 33.4526L25.6058 33.5896ZM20.9635 35.6105C21.1533 35.712 21.1954 35.8941 21.1954 36.6147V37.2968H19.2732H17.3511V36.5665V35.8363L17.4882 35.6992L17.6252 35.5622H19.2493C20.2735 35.5622 20.9067 35.58 20.9635 35.6105Z" fill="black"/>
</svg>
