<svg width="52" height="52" viewBox="0 0 52 52" fill="none" xmlns="http://www.w3.org/2000/svg">
<circle cx="26.4341" cy="26" r="25" stroke="black"/>
<path fill-rule="evenodd" clip-rule="evenodd" d="M21.2712 14.0678C21.1877 14.1092 21.0836 14.1829 21.0397 14.2315C20.8306 14.4629 20.8299 14.4784 20.8277 18.7152L20.8256 22.7452L19.407 23.2077C18.6268 23.4621 17.8547 23.7116 17.6913 23.7622C17.3068 23.8811 16.9777 24.1054 16.7573 24.3988C16.4061 24.8661 16.4261 24.4517 16.4403 30.9627L16.453 36.8031L16.5931 37.0803C16.7638 37.418 17.0624 37.7027 17.4243 37.8727L17.6955 38H26.154H34.6125L34.8433 37.8933C35.1667 37.7438 35.4146 37.5352 35.5849 37.2693C35.8435 36.8656 35.8789 36.6156 35.8789 35.1938V33.9157L36.1298 33.8816C36.2677 33.8628 36.4615 33.8154 36.5602 33.776C36.7899 33.6846 37.1346 33.3017 37.2079 33.0563C37.248 32.9224 37.2646 32.2676 37.2643 30.8372C37.2638 28.8128 37.2635 28.8076 37.1524 28.5684C36.9532 28.1399 36.5582 27.8746 36.1194 27.8746H35.8789V26.5681C35.8789 25.0904 35.8441 24.8548 35.5662 24.4474C35.2325 23.9581 34.8234 23.7553 34.1018 23.7214L33.5911 23.6975L33.5755 21.8484C33.5579 19.7373 33.5602 19.751 33.1545 19.3856C32.7867 19.0543 32.362 18.9818 31.8408 19.1615C31.688 19.2141 31.5448 19.2572 31.5227 19.2572C31.5005 19.2572 31.4819 18.2178 31.4813 16.9473C31.4804 14.7981 31.4741 14.6237 31.3913 14.4411C31.3424 14.3332 31.23 14.1932 31.1415 14.1299L30.9806 14.015L26.2018 14.0037C21.9359 13.9937 21.4067 14.0006 21.2712 14.0678ZM30.8595 14.6581C30.8925 14.7201 30.9089 16.2339 30.9089 19.2301V23.7095H30.5983H30.2877V20.2936V16.8777L30.1787 16.715C30.1187 16.6255 29.9951 16.5174 29.9039 16.4747C29.3432 16.2123 29.265 16.1622 29.1549 15.9955C29.09 15.8974 29.0254 15.7303 29.0112 15.6241C28.9597 15.2399 29.1175 15.2613 26.2269 15.2465C24.5886 15.2382 23.6119 15.2508 23.5313 15.2815C23.3943 15.3337 23.3331 15.4459 23.287 15.7293C23.2473 15.9739 22.9823 16.2609 22.6982 16.3672C22.3844 16.4846 22.2668 16.5678 22.1732 16.7389C22.0993 16.874 22.0908 17.1949 22.0785 20.2985L22.065 23.7095H21.7321H21.3991V19.2301C21.3991 16.2339 21.4155 14.7201 21.4485 14.6581C21.4969 14.5675 21.5997 14.5655 26.154 14.5655C30.7083 14.5655 30.811 14.5675 30.8595 14.6581ZM28.5393 16.0688C28.7248 16.489 29.0896 16.7922 29.6306 16.9757C29.7085 17.0021 29.7142 17.1428 29.7142 19.0189V21.0337L29.5256 20.6685C28.6551 18.9834 26.7141 18.1963 24.9289 18.8046C24.0478 19.1048 23.3454 19.6915 22.849 20.5421L22.6655 20.8565L22.6522 19.0156C22.6449 18.0031 22.6493 17.1316 22.662 17.0789C22.6774 17.0153 22.7683 16.9536 22.9329 16.895C23.3352 16.7519 23.6969 16.3584 23.8529 15.894C23.8792 15.8158 24.0318 15.8103 26.1531 15.8103H28.4251L28.5393 16.0688ZM26.9792 19.2765C28.0367 19.563 28.8718 20.367 29.2218 21.4355C29.3291 21.7629 29.3472 21.9018 29.3471 22.393C29.347 22.8727 29.3277 23.0267 29.2299 23.3265L29.1128 23.6856L27.4326 23.7095C26.4084 23.7241 25.7342 23.7521 25.7057 23.7813C25.5989 23.8908 25.5942 24.0823 25.6958 24.1841C25.7954 24.2839 25.8013 24.284 30.0846 24.2861C33.5425 24.2878 34.4083 24.3006 34.5529 24.3523C34.8282 24.4508 35.0454 24.6413 35.1691 24.8931C35.2792 25.117 35.2815 25.1504 35.2815 26.4862V27.8506L33.1311 27.8746L30.9806 27.8985L30.7281 28.0318C30.3912 28.2097 30.1144 28.4956 29.9602 28.825L29.8337 29.0954V30.8667V32.6381L29.9613 32.9108C30.205 33.4317 30.6794 33.778 31.2657 33.863C31.4243 33.886 32.3993 33.9053 33.4325 33.9058L35.3109 33.9067L35.2962 35.2592C35.282 36.5674 35.2779 36.6191 35.1691 36.8403C35.0454 37.0921 34.8282 37.2827 34.5529 37.3811C34.3078 37.4688 18.051 37.4811 17.7604 37.3939C17.5126 37.3195 17.2246 37.0648 17.1023 36.8119C17.0028 36.606 17.0026 36.5877 17.0028 30.9114C17.003 27.3649 17.0206 25.1544 17.0496 25.05C17.1186 24.8016 17.3701 24.5259 17.6443 24.398L17.8866 24.285L20.7502 24.2845C23.3472 24.2841 23.6218 24.2766 23.7011 24.2048C23.8092 24.1068 23.8148 23.8867 23.7114 23.8008C23.669 23.7655 23.5365 23.7252 23.4171 23.7111C23.2043 23.6861 23.1982 23.6806 23.1154 23.4362C22.7507 22.359 22.973 21.1989 23.7188 20.2871C24.0895 19.834 24.8469 19.3761 25.4133 19.2629C25.5578 19.2339 25.7191 19.2003 25.7717 19.1882C25.9404 19.1491 26.7193 19.2061 26.9792 19.2765ZM32.7752 19.8102C32.853 19.8848 32.9379 20.0226 32.9639 20.1162C32.9909 20.2137 33.0112 21.0185 33.0113 21.998L33.0116 23.7095H32.247H31.4824V21.7985V19.8876L31.8288 19.7651C32.2823 19.6048 32.5758 19.6188 32.7752 19.8102ZM24.9746 21.2858C24.6743 21.3682 24.432 21.5625 24.2759 21.846C24.1694 22.0394 24.1235 22.0805 24.0133 22.0811C23.8738 22.0818 23.6451 22.2676 23.6451 22.3801C23.6451 22.5333 23.7929 22.6563 23.9771 22.6563C24.1288 22.6563 24.1652 22.6754 24.1881 22.7669C24.2881 23.1658 24.797 23.518 25.2734 23.518C25.9048 23.518 26.3234 23.1272 26.4192 22.4481C26.4678 22.1039 26.58 21.9347 26.8113 21.8571C27.1545 21.7418 27.5016 21.9543 27.549 22.3087C27.5921 22.6302 27.3614 22.9435 27.0817 22.9435C26.9291 22.9435 26.7036 23.1106 26.7036 23.2236C26.7036 23.4028 26.8426 23.518 27.0589 23.518C27.4596 23.518 27.823 23.2805 28.0209 22.8894C28.1318 22.6701 28.15 22.6563 28.3264 22.6563C28.5231 22.6563 28.6629 22.534 28.6629 22.3619C28.6629 22.24 28.4325 22.0818 28.2549 22.0818C28.1263 22.0818 28.0904 22.0578 28.0514 21.9456C27.9905 21.7708 27.7306 21.474 27.5615 21.3865C26.8188 21.0017 25.9518 21.4568 25.8589 22.2804C25.8069 22.7416 25.6351 22.9437 25.2951 22.9433C24.9104 22.943 24.6275 22.6029 24.7165 22.2475C24.7651 22.0536 24.9898 21.8543 25.203 21.8159C25.4277 21.7755 25.5566 21.6724 25.5566 21.533C25.5566 21.2826 25.333 21.1876 24.9746 21.2858ZM20.8256 23.542V23.7095L20.288 23.7077L19.7504 23.706L20.2283 23.5447C20.4911 23.4561 20.733 23.3815 20.7659 23.3789C20.8031 23.3761 20.8256 23.4374 20.8256 23.542ZM18.0539 25.7681C17.8664 25.9559 17.9951 26.3426 18.245 26.3426C18.3859 26.3426 18.5318 26.1721 18.5318 26.0075C18.5318 25.8428 18.3859 25.6724 18.245 25.6724C18.1925 25.6724 18.1065 25.7155 18.0539 25.7681ZM18.0539 27.1086C17.961 27.2017 17.9583 27.2682 17.9583 29.5023C17.9583 31.7365 17.961 31.803 18.0539 31.896C18.1065 31.9487 18.1925 31.9918 18.245 31.9918C18.2976 31.9918 18.3836 31.9487 18.4362 31.896C18.5291 31.803 18.5318 31.7365 18.5318 29.5023C18.5318 27.2682 18.5291 27.2017 18.4362 27.1086C18.3836 27.0559 18.2976 27.0128 18.245 27.0128C18.1925 27.0128 18.1065 27.0559 18.0539 27.1086ZM36.4889 28.6129L36.6674 28.7768V30.8621V32.9474L36.5198 33.0953C36.4387 33.1766 36.2881 33.2626 36.1853 33.2865C35.9265 33.3467 31.6084 33.3445 31.2858 33.284C30.9371 33.2187 30.68 33.0287 30.5167 32.7156L30.3832 32.4596V30.8707V29.2818L30.5051 29.0369C30.624 28.7977 30.8413 28.588 31.0619 28.4993C31.1239 28.4744 32.2924 28.4538 33.7411 28.4521L36.3104 28.4491L36.4889 28.6129ZM32.1275 29.7573C31.8595 29.8623 31.7629 29.9397 31.6225 30.1614C31.4913 30.3687 31.4824 30.4133 31.4831 30.8641C31.4841 31.4324 31.5682 31.6329 31.9051 31.8701C32.0866 31.9979 32.1518 32.0157 32.4381 32.0157C32.7245 32.0157 32.7898 31.9979 32.9716 31.87C33.0856 31.7898 33.232 31.6282 33.2969 31.5109C33.3984 31.3276 33.4148 31.2371 33.4136 30.8667C33.4125 30.5189 33.3922 30.3972 33.3079 30.2352C33.0847 29.8056 32.5531 29.5904 32.1275 29.7573ZM32.7342 30.4141C32.8469 30.55 32.8923 30.9087 32.8252 31.1331C32.726 31.4646 32.3978 31.5727 32.1732 31.3476C32.0706 31.2449 32.0558 31.1873 32.0558 30.8897C32.0558 30.7025 32.0787 30.5064 32.1067 30.454C32.2151 30.2512 32.5799 30.2281 32.7342 30.4141Z" fill="black"/>
</svg>
