<svg width="52" height="52" viewBox="0 0 52 52" fill="none" xmlns="http://www.w3.org/2000/svg">
<circle cx="26.4341" cy="26" r="25" stroke="black"/>
<path fill-rule="evenodd" clip-rule="evenodd" d="M16.7506 15.3977C15.595 16.1663 14.6009 16.8397 14.5414 16.894C14.4356 16.9907 14.4334 17.0143 14.4342 18.0524C14.4346 18.6352 14.4508 19.1358 14.4702 19.1648C14.5324 19.258 14.7118 19.3286 14.802 19.2955C14.8501 19.2777 15.046 19.1584 15.2374 19.0302L15.5854 18.7971V20.0466C15.5854 21.232 15.5903 21.3009 15.6814 21.392C15.7755 21.4861 15.8414 21.488 18.9454 21.488C22.0495 21.488 22.1154 21.4861 22.2094 21.392C22.3005 21.3009 22.3054 21.232 22.3054 20.0466V18.7971L22.6534 19.0302C23.0801 19.316 23.1485 19.3424 23.2809 19.2727C23.4454 19.186 23.4559 19.1443 23.4567 18.572L23.4574 18.032H24.5342C25.5931 18.032 25.6115 18.0337 25.6436 18.135C25.6918 18.2867 26.0301 18.6364 26.1946 18.7045L26.3374 18.7637V20.478V22.1924L22.3495 24.8506C20.1562 26.3126 18.3418 27.5459 18.3175 27.5912C18.2933 27.6366 18.2734 28.1395 18.2734 28.7088C18.2734 29.68 18.2794 29.75 18.3694 29.84C18.5116 29.9821 18.6073 29.9607 19.0128 29.696C19.215 29.564 19.3905 29.456 19.4029 29.456C19.4153 29.456 19.4254 30.9032 19.4254 32.672V35.888H18.9454C18.2519 35.888 18.2734 35.8541 18.2734 36.944C18.2734 37.744 18.2805 37.8151 18.3694 37.904C18.4647 37.9992 18.5294 38 26.6254 38C34.7215 38 34.7862 37.9992 34.8814 37.904C34.9703 37.8151 34.9774 37.744 34.9774 36.944C34.9774 35.8541 34.999 35.888 34.3054 35.888H33.8254V32.672C33.8254 30.9032 33.8356 29.456 33.8479 29.456C33.8603 29.456 34.0359 29.564 34.2381 29.696C34.6436 29.9607 34.7393 29.9821 34.8814 29.84C34.9715 29.75 34.9774 29.68 34.9774 28.7088C34.9774 28.1395 34.9576 27.6366 34.9333 27.5912C34.909 27.5459 33.0946 26.3126 30.9013 24.8506L26.9134 22.1924V20.4754C26.9134 18.7618 26.9136 18.7584 27.0164 18.7258C27.1681 18.6776 27.5178 18.3393 27.5859 18.1748L27.6451 18.032H28.7192H29.7934L29.7942 18.572C29.795 19.1443 29.8054 19.186 29.97 19.2727C30.1024 19.3424 30.1708 19.316 30.5974 19.0302L30.9454 18.7971V20.0466C30.9454 21.232 30.9503 21.3009 31.0414 21.392C31.1355 21.4861 31.2014 21.488 34.3054 21.488C37.4095 21.488 37.4754 21.4861 37.5694 21.392C37.6605 21.3009 37.6654 21.232 37.6654 20.0466V18.7971L38.0134 19.0302C38.2049 19.1584 38.4008 19.2777 38.4489 19.2955C38.5391 19.3286 38.7185 19.258 38.7807 19.1648C38.8001 19.1358 38.8163 18.6352 38.8167 18.0524C38.8174 17.0143 38.8152 16.9907 38.7094 16.894C38.4821 16.6862 34.3943 14 34.3054 14C34.2165 14 30.1288 16.6862 29.9014 16.894C29.818 16.9703 29.7934 17.0454 29.7934 17.2244V17.456H28.7192H27.6451L27.5877 17.3175C27.5165 17.1456 27.2791 16.8988 27.0844 16.7942C26.8875 16.6884 26.3634 16.6884 26.1665 16.7942C25.9718 16.8988 25.7344 17.1456 25.6632 17.3175L25.6058 17.456H24.5316H23.4574V17.2244C23.4574 17.0454 23.4329 16.9703 23.3494 16.894C23.1221 16.6862 19.0343 14 18.9454 14C18.894 14 17.9063 14.6289 16.7506 15.3977ZM20.9379 15.9683L22.8814 17.2646V17.8671C22.8814 18.3364 22.8682 18.4617 22.8214 18.4336C22.7885 18.4137 21.9238 17.84 20.9001 17.1587C19.8763 16.4774 18.9967 15.92 18.9454 15.92C18.8941 15.92 18.0145 16.4774 16.9908 17.1587C15.967 17.84 15.1025 18.4137 15.0694 18.4336C15.0227 18.4617 15.0094 18.3364 15.0094 17.8671V17.2646L16.9414 15.9715C18.0041 15.2602 18.9007 14.6769 18.9339 14.6752C18.9671 14.6734 19.8689 15.2553 20.9379 15.9683ZM36.2979 15.9683L38.2414 17.2646V17.8671C38.2414 18.3364 38.2282 18.4617 38.1814 18.4336C38.1485 18.4137 37.2838 17.84 36.2601 17.1587C35.2363 16.4774 34.3568 15.92 34.3054 15.92C34.2541 15.92 33.3745 16.4774 32.3508 17.1587C31.327 17.84 30.4625 18.4137 30.4294 18.4336C30.3827 18.4617 30.3694 18.3364 30.3694 17.8671V17.2646L32.3014 15.9715C33.364 15.2602 34.2607 14.6769 34.2939 14.6752C34.3271 14.6734 35.2289 15.2553 36.2979 15.9683ZM20.3621 17.5044L21.7294 18.4168V19.6644V20.912H21.0574H20.3854V20.048C20.3854 19.248 20.3783 19.1769 20.2894 19.088C20.1984 18.9969 20.1295 18.992 18.9454 18.992C17.7614 18.992 17.6925 18.9969 17.6014 19.088C17.5125 19.1769 17.5054 19.248 17.5054 20.048V20.912H16.8334H16.1614V19.6644V18.4169L17.5174 17.5075C18.2633 17.0074 18.9007 16.5968 18.9341 16.5951C18.9674 16.5934 19.61 17.0026 20.3621 17.5044ZM35.7221 17.5044L37.0894 18.4168V19.6644V20.912H36.4174H35.7454V20.048C35.7454 19.248 35.7383 19.1769 35.6494 19.088C35.5584 18.9969 35.4895 18.992 34.3054 18.992C33.1214 18.992 33.0525 18.9969 32.9614 19.088C32.8725 19.1769 32.8654 19.248 32.8654 20.048V20.912H32.1934H31.5214V19.6644V18.4169L32.8774 17.5075C33.6233 17.0074 34.2607 16.5968 34.2941 16.5951C34.3274 16.5934 34.97 17.0026 35.7221 17.5044ZM26.8585 17.3324C27.1824 17.4999 27.1727 18.0163 26.8428 18.1666C26.5965 18.2789 26.3281 18.1979 26.2138 17.977C25.9885 17.5413 26.4228 17.1071 26.8585 17.3324ZM19.8094 20.24V20.912H18.9454H18.0814V20.24V19.568H18.9454H19.8094V20.24ZM35.1694 20.24V20.912H34.3054H33.4414V20.24V19.568H34.3054H35.1694V20.24ZM30.5375 25.3119L34.4014 27.8878V28.4799C34.4014 28.8056 34.3907 29.072 34.3776 29.072C34.3646 29.072 32.6363 27.9272 30.537 26.528C28.4377 25.1288 26.6775 23.984 26.6254 23.984C26.5734 23.984 24.8131 25.1288 22.7139 26.528C20.6146 27.9272 18.8857 29.072 18.8718 29.072C18.8579 29.072 18.8526 28.802 18.86 28.472L18.8734 27.8719L22.7134 25.3072C24.8254 23.8966 26.5805 22.741 26.6135 22.7392C26.6465 22.7374 28.4123 23.8952 30.5375 25.3119ZM29.9615 26.8479L33.2494 29.0398V32.4639V35.888H31.8094H30.3694L30.3687 34.748C30.3679 33.4793 30.3285 33.2051 30.0718 32.6837C29.9041 32.3431 29.4976 31.8942 29.1694 31.6871C29.0506 31.6122 28.8238 31.5055 28.6654 31.45C28.507 31.3945 28.3731 31.334 28.3677 31.3155C28.3623 31.2971 28.3996 31.1878 28.4505 31.0726C28.6178 30.6946 28.6513 30.4004 28.6311 29.4894C28.6142 28.7291 28.5979 28.5818 28.5059 28.352C28.2905 27.8146 27.8859 27.4096 27.3454 27.1903C27.1008 27.091 26.991 27.0819 25.849 27.066C24.3877 27.0457 24.4817 27.0085 24.3267 27.6687C24.1545 28.402 24.2099 29.0425 24.4874 29.528C24.5749 29.6811 24.602 29.8173 24.621 30.2C24.6467 30.7159 24.7221 30.9689 24.956 31.3227C25.0326 31.4386 25.0777 31.5473 25.0563 31.5644C25.035 31.5813 24.8927 31.6785 24.7402 31.7804C24.4522 31.9726 24.1383 32.3257 23.9796 32.636L23.8875 32.816L22.8685 32.8162C21.7311 32.8164 21.6392 32.8388 21.4412 33.1636C21.3523 33.3093 21.3458 33.4075 21.3456 34.604L21.3454 35.888H20.6734H20.0014V32.4639V29.0398L23.2774 26.8511C25.0793 25.6474 26.5805 24.661 26.6135 24.6593C26.6465 24.6575 28.1531 25.6424 29.9615 26.8479ZM27.0409 27.7035C27.6718 27.8909 28.1155 28.5359 28.0577 29.182L28.0414 29.3641L27.7778 29.23C27.6111 29.1453 27.4548 29.0166 27.353 28.88C27.1661 28.6294 27.0481 28.559 26.9182 28.6207C26.868 28.6445 26.7545 28.7612 26.6659 28.88C26.5645 29.0159 26.4082 29.145 26.2445 29.228C26.0128 29.3455 25.9322 29.36 25.5101 29.36H25.0361L24.9332 29.132C24.8061 28.8499 24.7687 28.3351 24.8491 27.9721C24.8816 27.8246 24.918 27.6878 24.9297 27.668C24.9415 27.6482 25.3671 27.632 25.8756 27.632C26.5548 27.632 26.8639 27.651 27.0409 27.7035ZM27.1649 29.5303C27.3522 29.6878 27.6039 29.8154 27.8679 29.8865L28.0778 29.9431L28.0542 30.2737C27.9951 31.0989 27.4323 31.6368 26.6254 31.639C26.3274 31.6398 26.2185 31.617 25.9927 31.5061C25.5111 31.2695 25.2375 30.8438 25.1962 30.2664L25.1733 29.9473L25.6742 29.9288C26.1203 29.9123 26.2091 29.8935 26.4877 29.7563C26.6597 29.6716 26.84 29.5586 26.8884 29.5052C26.998 29.384 26.9902 29.3833 27.1649 29.5303ZM28.5135 32.0029C29.0261 32.1982 29.4411 32.6144 29.6592 33.152C29.7585 33.3967 29.7676 33.5063 29.7835 34.652L29.8006 35.888H29.317H28.8334V35.408C28.8334 34.6934 28.9246 34.736 27.3934 34.736H26.1454L26.1453 34.052C26.1453 33.277 26.0974 33.1141 25.8143 32.925C25.6687 32.8277 25.593 32.816 25.1063 32.816C24.7831 32.816 24.5614 32.7969 24.5614 32.7691C24.5614 32.6674 25.0948 32.1965 25.3428 32.0791L25.6054 31.9549L25.8136 32.0555C26.3283 32.3042 27.021 32.2838 27.5351 32.0048C27.8414 31.8386 28.0811 31.8381 28.5135 32.0029ZM25.5583 34.652L25.5711 35.888H23.7463H21.9214V34.672C21.9214 34.0032 21.9361 33.4413 21.954 33.4234C21.9719 33.4055 22.7873 33.3965 23.766 33.4034L25.5454 33.416L25.5583 34.652ZM23.4793 34.3738C23.2411 34.6119 23.4099 35.024 23.7454 35.024C23.9428 35.024 24.1294 34.8373 24.1294 34.64C24.1294 34.4427 23.9428 34.256 23.7454 34.256C23.6519 34.256 23.5535 34.2995 23.4793 34.3738ZM28.2574 35.6V35.888H27.2014H26.1454V35.6V35.312H27.2014H28.2574V35.6ZM34.4014 36.944V37.424H26.6254H18.8494V36.944V36.464H26.6254H34.4014V36.944Z" fill="black"/>
</svg>
