<svg width="52" height="52" viewBox="0 0 52 52" fill="none" xmlns="http://www.w3.org/2000/svg">
<circle cx="26.2894" cy="26" r="25" stroke="black"/>
<path fill-rule="evenodd" clip-rule="evenodd" d="M28.5918 14.043C26.866 14.2247 25.2113 14.9993 23.942 16.2195C21.8725 18.209 21.0376 20.965 21.6609 23.7497C21.8537 24.6113 22.2694 25.6397 22.48 25.7761C22.7573 25.9558 23.0656 25.9075 23.2659 25.6528C23.4122 25.4667 23.3935 25.264 23.1845 24.7714C22.7741 23.804 22.6117 23.0266 22.6094 22.0175C22.6074 21.1882 22.6991 20.598 22.9452 19.8541C23.3242 18.7088 23.8954 17.8122 24.7717 16.9873C26.1673 15.6735 28.1155 14.9964 30.0062 15.168C31.017 15.2597 32.0019 15.5667 32.8591 16.0571C34.2472 16.8513 35.3819 18.2351 35.9144 19.7829C36.1508 20.47 36.2266 20.911 36.2543 21.7594C36.2957 23.0289 36.1194 23.8595 35.567 24.9966C34.8205 26.5336 33.5394 27.7253 31.9854 28.3283C31.1034 28.6706 30.9888 28.7613 31.0026 29.1066C31.0119 29.3394 31.08 29.4609 31.2642 29.5732C31.4674 29.6971 31.5952 29.6888 32.0784 29.5201C36.2083 28.0781 38.4078 23.5417 36.9899 19.3906C36.5827 18.1985 35.8955 17.1311 34.9504 16.2223C33.2702 14.6067 30.912 13.7985 28.5918 14.043ZM29.1297 16.3274C28.8748 16.4855 28.8802 16.4189 28.8802 19.409C28.8802 22.0009 28.8857 22.1898 28.9646 22.3059C29.128 22.5466 29.2129 22.557 31.017 22.557C32.5312 22.557 32.6962 22.5494 32.8108 22.4742C33.1829 22.2304 33.1829 21.7577 32.8109 21.5138C32.6992 21.4405 32.5303 21.4294 31.3337 21.4166L29.9827 21.4022V18.9841V16.5659L29.8232 16.4063C29.69 16.2731 29.63 16.247 29.4596 16.2481C29.3473 16.2487 29.1989 16.2845 29.1297 16.3274ZM16.1426 20.0369C15.6664 20.2188 15.3688 20.45 15.1333 20.8211C14.9161 21.1634 14.829 21.4656 14.829 21.8767C14.829 22.6642 15.2436 23.3009 15.9817 23.6465C16.2305 23.763 16.312 23.7768 16.7525 23.7768C17.2064 23.7768 17.2693 23.7653 17.553 23.6309C18.7695 23.0545 19.0569 21.4851 18.1218 20.5251C17.9708 20.3701 17.7622 20.2216 17.563 20.1272C17.2831 19.9946 17.1919 19.9754 16.7994 19.9664C16.4712 19.9589 16.298 19.9775 16.1426 20.0369ZM17.1478 21.1854C17.3619 21.3073 17.5501 21.6238 17.5501 21.8621C17.5501 22.3474 17.0707 22.7497 16.6037 22.6563C15.994 22.5343 15.7402 21.7739 16.1575 21.3195C16.3917 21.0644 16.8307 21.005 17.1478 21.1854ZM27.7073 23.517C27.5509 23.5824 27.3574 23.8228 26.5347 24.9731C26.1011 25.5795 25.7035 26.1231 25.6513 26.1812L25.5563 26.2868H23.8504C21.9786 26.2868 21.9892 26.2853 21.8405 26.5729C21.675 26.8929 21.8368 27.2648 22.1865 27.3682C22.3015 27.4023 22.9518 27.4143 24.1417 27.4043C25.8806 27.3897 25.9293 27.3867 26.1199 27.2849C26.3604 27.1562 26.4324 27.0674 27.486 25.6001C28.3861 24.3465 28.4815 24.1955 28.4812 24.0254C28.4807 23.673 28.0348 23.3801 27.7073 23.517ZM15.7421 24.2725C15.1871 24.3456 14.6159 24.798 14.3983 25.3369C14.2897 25.6057 14.2894 25.6126 14.2894 27.835C14.2894 29.6098 14.3029 30.1112 14.3555 30.2981C14.6095 31.1993 15.3438 31.867 16.2364 32.0084C16.4042 32.035 16.9478 32.0568 17.4445 32.057L18.3476 32.0574V34.4417C18.3476 37.1191 18.3442 37.088 18.6842 37.4743C19.0458 37.8851 19.5718 38.0717 20.0952 37.9749C20.4643 37.9067 20.6913 37.7791 20.9446 37.4974C21.314 37.0864 21.3033 37.2004 21.3033 33.676C21.3033 30.236 21.3082 30.2971 20.9951 29.8289C20.7983 29.5345 20.5674 29.3512 20.2038 29.2004C19.9336 29.0884 19.8645 29.0815 18.8285 29.0637L17.7377 29.0449L17.7363 27.5838C17.7355 26.7801 17.7149 25.9694 17.6906 25.7822C17.5597 24.7743 16.742 24.1408 15.7421 24.2725ZM16.2843 25.4662C16.541 25.5989 16.5396 25.5874 16.5648 27.7881C16.5855 29.5889 16.5974 29.8418 16.6661 29.9388C16.853 30.2027 16.851 30.2024 18.4015 30.2277C19.7549 30.2498 19.8455 30.2566 19.9445 30.345C20.1785 30.5539 20.1773 30.537 20.1773 33.6927C20.1773 36.4362 20.1715 36.6515 20.0952 36.7409C19.968 36.89 19.7124 36.8939 19.5674 36.749C19.4759 36.6574 19.4736 36.5926 19.4736 34.0264C19.4736 31.1653 19.4748 31.1788 19.2102 30.9996C19.0853 30.9151 18.964 30.9061 17.6439 30.8845C16.275 30.8621 16.2044 30.8565 16.0163 30.7559C15.8 30.6403 15.6211 30.4323 15.5107 30.168C15.404 29.9127 15.4032 25.8819 15.5098 25.6757C15.6432 25.4179 16.0027 25.3206 16.2843 25.4662ZM20.2192 27.7176C19.8369 27.9254 19.857 28.5143 20.2527 28.7022C20.38 28.7626 20.7299 28.7733 22.5654 28.7733H24.7282V33.1879C24.7282 37.2647 24.7343 37.6128 24.8082 37.738C24.968 38.0085 25.3452 38.0806 25.6144 37.892C25.86 37.7201 25.8541 37.8353 25.8541 33.138V28.7733H27.9903C29.688 28.7733 30.1579 28.7602 30.2796 28.7093C30.6671 28.5474 30.7265 28.0246 30.3869 27.7655L30.2319 27.6473L25.2867 27.6492C21.1114 27.6508 20.3225 27.6615 20.2192 27.7176Z" fill="black"/>
</svg>
