<svg width="52" height="52" viewBox="0 0 52 52" fill="none" xmlns="http://www.w3.org/2000/svg">
<circle cx="26.2894" cy="26" r="25" stroke="black"/>
<path fill-rule="evenodd" clip-rule="evenodd" d="M25.6137 14.112C25.5521 14.1736 25.4885 14.2949 25.4722 14.3816C25.4559 14.4683 25.4492 15.0844 25.4574 15.7508L25.4721 16.9624L25.6037 17.0755C25.7718 17.22 25.9695 17.22 26.1377 17.0755L26.2692 16.9624L26.284 15.7508C26.2921 15.0844 26.2854 14.4683 26.2691 14.3816C26.2292 14.1689 26.0529 14 25.8707 14C25.7804 14 25.6835 14.0422 25.6137 14.112ZM20.0057 15.6376C19.9299 15.7133 19.8686 15.8252 19.8686 15.8878C19.8686 16.0262 21.0494 18.1082 21.2114 18.2553C21.3414 18.3735 21.5801 18.3935 21.7073 18.2969C21.8342 18.2005 21.8901 18.0056 21.8336 17.8568C21.7277 17.5779 20.6023 15.6818 20.4905 15.5939C20.324 15.4629 20.1662 15.4771 20.0057 15.6376ZM31.2209 15.6295C31.0031 15.8336 29.8882 17.8179 29.8932 17.9924C29.9025 18.3188 30.2859 18.4771 30.5299 18.2553C30.6919 18.1082 31.8727 16.0262 31.8727 15.8878C31.8727 15.7373 31.6317 15.5005 31.4785 15.5005C31.412 15.5005 31.2969 15.5581 31.2209 15.6295ZM25.0266 18.0342C21.9209 18.4151 19.3725 20.5921 18.5517 23.5654C18.3941 24.1363 18.3201 24.6272 18.2894 25.304C18.1762 27.8059 19.2981 30.1482 21.3621 31.7194C21.5723 31.8794 21.7443 32.0382 21.7443 32.0723C21.7443 32.1064 21.8505 32.9199 21.9804 33.8802C22.2476 35.8562 22.2507 35.8664 22.7662 36.5152C23.4504 37.3761 24.5161 37.9248 25.6362 37.9929C27.1571 38.0852 28.6299 37.2744 29.3558 35.9449C29.5201 35.6441 29.5255 35.6163 29.7674 33.8103L30.0125 31.9804L30.3213 31.7723C30.8244 31.4332 31.7573 30.4661 32.147 29.8796C32.982 28.6232 33.3915 27.3477 33.4513 25.8165C33.5869 22.3476 31.2527 19.184 27.8819 18.2681C27.0361 18.0384 25.811 17.938 25.0266 18.0342ZM26.8319 18.8813C28.3632 19.0749 29.9073 19.9124 30.9703 21.126C31.7689 22.0378 32.2732 23.0522 32.5355 24.2744C32.6748 24.9235 32.6874 26.2321 32.5604 26.8656C32.2355 28.4873 31.3165 29.9959 30.0737 30.9478L29.7327 31.2089H28.5988H27.4649V29.5501V27.8912L27.6642 27.9134C27.8513 27.9343 27.8953 27.9134 28.3793 27.5743C28.663 27.3756 28.9321 27.1707 28.9772 27.1191C29.1701 26.8984 28.9919 26.473 28.7066 26.473C28.5553 26.473 28.4641 26.5211 28.064 26.8121C27.8667 26.9556 27.7255 27.0285 27.6884 27.0059C27.6558 26.986 27.4729 26.858 27.2821 26.7213C27.0701 26.5696 26.8863 26.473 26.8095 26.473C26.7319 26.473 26.5284 26.5814 26.2772 26.7566L25.8707 27.0403L25.4641 26.7566C25.2129 26.5814 25.0094 26.473 24.9318 26.473C24.855 26.473 24.6712 26.5696 24.4592 26.7213C24.2684 26.858 24.0855 26.986 24.0529 27.0059C24.0158 27.0285 23.8747 26.9556 23.6773 26.8121C23.2384 26.4929 23.166 26.4597 22.9833 26.494C22.7965 26.529 22.6815 26.6734 22.6836 26.8703C22.6856 27.0648 22.7402 27.1245 23.2602 27.5012C23.8437 27.9237 23.8802 27.9417 24.0956 27.9128L24.2764 27.8886V29.5488V31.2089H23.1471H22.018L21.799 31.0346C20.8296 30.2626 20.2939 29.6204 19.7936 28.6299C19.5293 28.1069 19.2924 27.4063 19.183 26.8246C19.054 26.1379 19.065 24.9363 19.2063 24.2744C19.7618 21.6736 21.623 19.7095 24.1826 19.0231C24.993 18.8057 25.8646 18.7591 26.8319 18.8813ZM25.3948 19.6344C23.303 19.7898 21.4644 21.0373 20.502 22.9543C20.1939 23.5681 20.033 24.0902 19.9379 24.7849C19.8331 25.5497 19.8428 25.7041 20.0057 25.867C20.1807 26.042 20.3511 26.0446 20.5209 25.8748C20.6357 25.76 20.6538 25.6991 20.6821 25.3303C20.7691 24.1986 21.1501 23.2019 21.8137 22.37C22.7295 21.2219 24.0207 20.5461 25.5288 20.4254C25.9421 20.3923 26.037 20.3694 26.1325 20.2797C26.3521 20.0734 26.2385 19.6823 25.941 19.6203C25.8894 19.6096 25.6436 19.6159 25.3948 19.6344ZM15.8911 19.7354C15.7527 19.8827 15.7544 20.141 15.8946 20.2711C16.0723 20.436 18.0535 21.5571 18.2136 21.5833C18.3365 21.6034 18.3897 21.5819 18.5066 21.465C18.6876 21.284 18.6921 21.1154 18.5205 20.9463C18.4496 20.8764 17.9248 20.551 17.3544 20.2231C16.2269 19.575 16.0859 19.528 15.8911 19.7354ZM34.3579 20.2394C33.7776 20.5748 33.2554 20.9025 33.1973 20.9675C33.1393 21.0325 33.0918 21.1389 33.0918 21.204C33.0918 21.3618 33.3297 21.5963 33.4897 21.5963C33.6176 21.5963 35.6518 20.4529 35.8467 20.2715C35.9919 20.1362 35.9904 19.8667 35.8437 19.7288C35.6356 19.5334 35.4969 19.5811 34.3579 20.2394ZM14.4037 25.322C14.262 25.4637 14.2505 25.712 14.3782 25.8699L14.4678 25.9806L15.8269 25.9943L17.186 26.0081L17.3175 25.8949C17.501 25.7371 17.502 25.4747 17.3198 25.318L17.1906 25.2069H15.8547H14.5188L14.4037 25.322ZM34.4215 25.318C34.2393 25.4747 34.2403 25.7371 34.4238 25.8949L34.5554 26.0081L35.9144 25.9943L37.2735 25.9806L37.3631 25.8699C37.4909 25.712 37.4793 25.4637 37.3376 25.322L37.2225 25.2069H35.8866H34.5507L34.4215 25.318ZM25.7652 27.9101C25.9292 27.9515 26.0579 27.9008 26.3747 27.67L26.6678 27.4566V29.3328V31.2089H25.8707H25.0735V29.3328V27.4566L25.3666 27.67C25.5278 27.7874 25.7071 27.8955 25.7652 27.9101ZM17.0552 30.2291C16.4749 30.5656 15.9526 30.8852 15.8946 30.9393C15.6551 31.1627 15.8274 31.5841 16.1584 31.5841C16.3354 31.5841 18.3677 30.4424 18.544 30.244C18.6823 30.0882 18.6773 29.9363 18.5281 29.7589C18.3251 29.5177 18.2294 29.5483 17.0552 30.2291ZM33.2901 29.6437C33.2119 29.6782 33.0918 29.9132 33.0918 30.0317C33.0918 30.206 33.3008 30.3607 34.3638 30.9729C35.49 31.6217 35.6057 31.6623 35.8286 31.4869C35.9921 31.3583 36.0012 31.0834 35.8467 30.9395C35.7886 30.8855 35.277 30.5733 34.7096 30.2458C33.7314 29.6813 33.4628 29.5673 33.2901 29.6437ZM29.1819 32.1819C29.1674 32.2787 29.142 32.458 29.1255 32.5805L29.0955 32.8032H25.8707H22.6458L22.6158 32.5805C22.5993 32.458 22.5739 32.2787 22.5595 32.1819L22.5332 32.0061H25.8707H29.2082L29.1819 32.1819ZM28.964 33.7293C28.9611 33.993 28.7419 35.4149 28.6889 35.5139L28.6339 35.6167H25.8707H23.1074L23.0524 35.5139C22.9994 35.4149 22.7802 33.993 22.7773 33.7293L22.7759 33.6004H25.8707H28.9655L28.964 33.7293ZM27.8622 36.5049C27.6895 36.675 27.2084 36.9325 26.8319 37.0563C26.5077 37.1628 26.3772 37.1796 25.8707 37.1796C25.3641 37.1796 25.2336 37.1628 24.9094 37.0563C24.533 36.9325 24.0518 36.675 23.8791 36.5049C23.7875 36.4147 23.8067 36.4138 25.8707 36.4138C27.9347 36.4138 27.9538 36.4147 27.8622 36.5049Z" fill="black"/>
</svg>
