<svg width="52" height="52" viewBox="0 0 52 52" fill="none" xmlns="http://www.w3.org/2000/svg">
<circle cx="26" cy="26" r="25" stroke="black"/>
<path fill-rule="evenodd" clip-rule="evenodd" d="M21.7222 14.0833C21.0932 14.3014 20.6501 14.6952 20.3694 15.2855L20.2036 15.6342L20.1878 16.7955L20.1719 17.9569H17.3028C15.4775 17.9569 14.3228 17.9773 14.1287 18.0131C13.6108 18.1085 13.2507 18.4107 13.0797 18.8935C13.0105 19.0888 13.0001 19.7946 13.0001 24.2698C13.0001 29.9364 12.9859 29.6788 13.321 30.0838C13.4094 30.1907 13.5738 30.3248 13.6862 30.382L13.8907 30.486V33.6457C13.8907 35.6962 13.9102 36.8823 13.9462 37.0243C14.0318 37.3621 14.3107 37.7041 14.6299 37.8626L14.9067 38H26.4118H37.9168L38.1936 37.8626C38.5128 37.7041 38.7917 37.3621 38.8773 37.0243C38.9133 36.8823 38.9328 35.6962 38.9328 33.6457V30.486L39.1373 30.382C39.2498 30.3248 39.4142 30.1907 39.5026 30.0838C39.8376 29.6788 39.8234 29.9364 39.8234 24.2698C39.8234 19.7946 39.813 19.0888 39.7438 18.8935C39.5729 18.4107 39.2127 18.1085 38.6949 18.0131C38.5007 17.9773 37.346 17.9569 35.5207 17.9569H32.6517L32.6358 16.7926L32.6199 15.6282L32.4247 15.235C32.1861 14.7542 31.8373 14.4133 31.348 14.1824L30.9958 14.0161L26.4903 14.0042C22.3213 13.9932 21.9653 13.9991 21.7222 14.0833ZM30.9696 14.986C31.2862 15.1287 31.4818 15.3205 31.6306 15.6342C31.7477 15.881 31.7545 15.9513 31.755 16.926L31.7555 17.9569H31.3102H30.8649V16.9889C30.8649 16.0308 30.8636 16.0196 30.7362 15.8928L30.6077 15.7647H26.4118H22.2158L22.0873 15.8928C21.96 16.0196 21.9587 16.0308 21.9587 16.9889V17.9569H21.5134H21.068L21.0692 16.926C21.0702 16.0021 21.0814 15.8708 21.1771 15.6603C21.3204 15.3449 21.5129 15.15 21.8277 15.0017L22.0896 14.8784L26.4118 14.879C30.6472 14.8796 30.7386 14.8818 30.9696 14.986ZM29.9742 17.3044V17.9569H26.4118H22.8493V17.3044V16.652H26.4118H29.9742V17.3044ZM38.5791 18.8991C38.954 19.0028 38.9328 18.6816 38.9328 24.2726C38.9328 29.8645 38.954 29.5433 38.5789 29.6465C38.3713 29.7035 28.5123 31.0593 28.3109 31.0585C28.1987 31.058 28.193 31.0383 28.193 30.647C28.193 29.9857 27.984 29.5674 27.5169 29.2938C27.2816 29.156 27.2566 29.1528 26.4118 29.1528C25.5669 29.1528 25.5419 29.156 25.3067 29.2938C24.8396 29.5674 24.6305 29.9857 24.6305 30.647C24.6305 31.0383 24.6249 31.058 24.5127 31.0585C24.3112 31.0593 14.4522 29.7035 14.2446 29.6465C13.8695 29.5433 13.8907 29.8645 13.8907 24.2726C13.8907 18.7279 13.874 19.0017 14.2188 18.9025C14.465 18.8316 38.3233 18.8283 38.5791 18.8991ZM27.1643 30.1517L27.3024 30.2893V31.7412C27.3024 32.6941 27.2824 33.2368 27.2442 33.3203C27.1564 33.5123 26.9816 33.5634 26.4118 33.5634C25.842 33.5634 25.6672 33.5123 25.5793 33.3203C25.5412 33.2368 25.5211 32.6941 25.5211 31.7412V30.2893L25.6592 30.1517C25.7928 30.0187 25.8178 30.0141 26.4118 30.0141C27.0058 30.0141 27.0307 30.0187 27.1643 30.1517ZM19.7321 31.3183C22.2678 31.6645 24.4055 31.9604 24.4826 31.976L24.6229 32.0041L24.6398 32.7446C24.6585 33.5634 24.7119 33.7454 25.0252 34.0575C25.3514 34.3824 25.5106 34.4246 26.4118 34.4246C27.313 34.4246 27.4722 34.3824 27.7984 34.0575C28.1116 33.7454 28.165 33.5634 28.1837 32.7446L28.2006 32.0041L28.3409 31.976C28.418 31.9604 30.5558 31.6645 33.0914 31.3183C35.6271 30.9721 37.7783 30.6754 37.8719 30.6588L38.0422 30.6288V33.6915C38.0422 36.8356 38.0388 36.8916 37.8372 37.0458C37.7158 37.1386 15.1077 37.1386 14.9863 37.0458C14.7847 36.8916 14.7813 36.8356 14.7813 33.6915V30.6288L14.9516 30.6588C15.0453 30.6754 17.1965 30.9721 19.7321 31.3183Z" fill="black"/>
</svg>
