<svg width="52" height="52" viewBox="0 0 52 52" fill="none" xmlns="http://www.w3.org/2000/svg">
<circle cx="26.1448" cy="26" r="25" stroke="black"/>
<path fill-rule="evenodd" clip-rule="evenodd" d="M35.1013 14.0331C34.5797 14.1204 34.0101 14.4344 33.6214 14.8492C33.1369 15.3661 32.9323 15.8865 32.9318 16.6029C32.9316 17.0469 33.0024 17.3684 33.1952 17.7985C33.2177 17.8487 32.6131 18.4823 31.0809 20.014L28.9351 22.1592L28.7011 22.0023C27.564 21.2398 26.0366 21.2396 24.9041 22.0016L24.6701 22.1592L22.9981 20.4877L21.3262 18.8162L21.4247 18.6004C21.502 18.4312 21.5237 18.2885 21.5256 17.9392C21.5276 17.5519 21.5117 17.459 21.4032 17.2277C21.0813 16.541 20.4659 16.1713 19.7141 16.2127C18.352 16.2879 17.6157 17.8267 18.4106 18.9367C18.8749 19.585 19.7528 19.8386 20.4679 19.531L20.7157 19.4244L22.3835 21.0923L24.0514 22.7602L23.8927 23.0074C23.4977 23.623 23.333 24.185 23.333 24.9179C23.333 25.6424 23.5227 26.2819 23.9004 26.8308L24.0485 27.0461L21.2805 29.8141L18.5125 32.5822L18.3323 32.4403C17.3235 31.6457 15.8442 31.7489 14.921 32.6784C13.8878 33.7188 13.8858 35.3123 14.9165 36.342C15.448 36.873 16.024 37.1154 16.7543 37.1154C17.4748 37.1154 18.0935 36.8633 18.5955 36.3652C19.1245 35.8404 19.3684 35.2444 19.363 34.4898C19.36 34.0742 19.282 33.7301 19.0972 33.3176C19.0747 33.2673 19.8601 32.453 21.8553 30.4582L24.645 27.6691L24.7744 27.7519C25.1923 28.0193 25.6908 28.2331 26.0993 28.3201L26.3572 28.375L26.3694 30.5837L26.3815 32.7925L26.0646 32.8895C24.7769 33.2834 23.9713 34.6087 24.2415 35.8883C24.6728 37.9298 27.135 38.7011 28.6142 37.2581C29.2772 36.6114 29.5508 35.6702 29.3373 34.7711C29.132 33.9066 28.4168 33.1576 27.5406 32.8895L27.2237 32.7925L27.2358 30.5882L27.248 28.3839L27.5996 28.2952C27.9289 28.2121 28.5371 27.9443 28.8308 27.7532L28.9603 27.669L30.6238 29.3329L32.2872 30.9968L32.1651 31.2986C32.0591 31.5606 32.0456 31.651 32.063 31.9835C32.0983 32.6555 32.4561 33.1817 33.0747 33.4713C33.3508 33.6005 33.4396 33.6189 33.7885 33.6189C34.1353 33.6189 34.2266 33.6003 34.4918 33.4755C34.8781 33.2938 35.1699 33.0027 35.3547 32.6143C35.4837 32.3435 35.4998 32.2626 35.4998 31.8866C35.4998 31.5055 35.485 31.4336 35.35 31.1599C35.0899 30.6328 34.61 30.2707 34.0581 30.1853C33.7418 30.1364 33.3247 30.1898 33.0773 30.311L32.9052 30.3952L31.231 28.7206L29.5568 27.0459L29.7053 26.8301C30.0666 26.305 30.2707 25.6087 30.2707 24.9017C30.2707 24.1941 30.0943 23.6026 29.7002 22.9884L29.5539 22.7603L31.6567 20.6571L33.7596 18.5538L33.9733 18.7094C34.475 19.0747 34.9471 19.2257 35.5702 19.22C36.2775 19.2136 36.8002 19.0012 37.3159 18.5104C38.1686 17.6989 38.3785 16.5353 37.8648 15.4684C37.3766 14.4545 36.2088 13.848 35.1013 14.0331ZM36.25 15.047C37.2673 15.5191 37.5803 16.8176 36.8876 17.6931C36.0046 18.8092 34.2295 18.4394 33.8546 17.0613C33.6243 16.2146 34.0612 15.3552 34.9011 15.0028C35.2854 14.8415 35.8468 14.8599 36.25 15.047ZM20.0745 17.1007C20.3342 17.1724 20.5924 17.4531 20.6509 17.7273C20.7783 18.3246 20.3473 18.8232 19.7464 18.7733C19.3445 18.74 19.0605 18.4927 18.9717 18.0987C18.8852 17.7155 19.1429 17.2478 19.5119 17.1183C19.7425 17.0373 19.8348 17.0345 20.0745 17.1007ZM27.4073 22.3716C28.1179 22.5391 28.7901 23.0677 29.1173 23.7165C29.514 24.5032 29.518 25.3138 29.1289 26.0865C28.6815 26.9747 27.8056 27.5111 26.8026 27.5111C24.4656 27.5111 23.3102 24.6917 24.9753 23.0522C25.6088 22.4284 26.5413 22.1675 27.4073 22.3716ZM34.1456 31.1099C34.3449 31.2004 34.5488 31.4274 34.6094 31.6263C34.664 31.8055 34.6425 32.1308 34.5663 32.2782C34.1484 33.0863 32.9158 32.7915 32.9281 31.8864C32.9368 31.2482 33.5662 30.8468 34.1456 31.1099ZM17.4154 32.906C17.7686 33.0363 18.1726 33.4241 18.3432 33.7967C18.4599 34.0517 18.4781 34.1479 18.4781 34.5132C18.4781 34.8776 18.4599 34.975 18.3445 35.2269C18.1881 35.5685 17.8142 35.9478 17.4949 36.0891C16.6156 36.4781 15.6135 36.1138 15.1899 35.2511C15.0717 35.0105 15.0577 34.9325 15.0577 34.5132C15.0577 34.0939 15.0717 34.0159 15.1899 33.7753C15.5987 32.9428 16.5292 32.5793 17.4154 32.906ZM27.2746 33.7214C27.6344 33.8283 27.9935 34.0826 28.2086 34.383C28.8451 35.272 28.5157 36.4976 27.5141 36.9672C27.2845 37.0748 27.1869 37.0919 26.8026 37.0919C26.4183 37.0919 26.3207 37.0748 26.0911 36.9672C24.892 36.4051 24.7088 34.8076 25.7516 34.0083C26.179 33.6807 26.7654 33.5702 27.2746 33.7214Z" fill="black"/>
</svg>
