<svg width="14" height="14" viewBox="0 0 14 14" fill="none" xmlns="http://www.w3.org/2000/svg">
<path fill-rule="evenodd" clip-rule="evenodd" d="M12.0525 13.4022C12.4252 13.7749 13.0297 13.7749 13.4024 13.4022C13.7752 13.0294 13.7752 12.425 13.4024 12.0522L8.35011 6.99994L13.4024 1.94764C13.7752 1.57486 13.7752 0.970479 13.4024 0.597706C13.0297 0.224933 12.4252 0.224933 12.0525 0.597706L7.00019 5.65001L1.94787 0.597696C1.57509 0.224922 0.970713 0.224922 0.59794 0.597696C0.225166 0.970468 0.225166 1.57485 0.59794 1.94763L5.65026 6.99994L0.597939 12.0522C0.225166 12.425 0.225166 13.0294 0.597939 13.4022C0.970713 13.775 1.57509 13.775 1.94787 13.4022L7.00019 8.34987L12.0525 13.4022Z" fill="black"/>
</svg>
