<svg width="24" height="14" viewBox="0 0 24 14" fill="none" xmlns="http://www.w3.org/2000/svg">
<path fill-rule="evenodd" clip-rule="evenodd" d="M16.191 1.00949C16.688 0.512461 17.4939 0.512461 17.9909 1.00949L23.081 6.09966L23.0818 6.1004C23.2038 6.22243 23.2959 6.36306 23.358 6.51318C23.4202 6.66323 23.4546 6.82779 23.4546 7.00035C23.4546 7.17224 23.4205 7.33616 23.3587 7.48575C23.3281 7.56006 23.2901 7.63206 23.2448 7.70065C23.1982 7.77122 23.1439 7.83818 23.0818 7.90031L23.081 7.90105L17.9909 12.9912C17.4939 13.4882 16.688 13.4882 16.191 12.9912C15.694 12.4942 15.694 11.6883 16.191 11.1913L19.1092 8.27308H1.8182C1.11529 8.27308 0.545471 7.70326 0.545471 7.00035C0.545471 6.29745 1.11529 5.72763 1.8182 5.72763H19.1092L16.191 2.8094C15.694 2.31237 15.694 1.50652 16.191 1.00949Z" fill="black"/>
</svg>
