<svg width="14" height="16" viewBox="0 0 14 16" fill="none" xmlns="http://www.w3.org/2000/svg">
<path fill-rule="evenodd" clip-rule="evenodd" d="M6.39246 0.0478445C6.33229 0.0739145 6.24311 0.13315 6.19431 0.179476C6.02364 0.34146 6.00294 0.414794 5.9861 0.916938L5.97047 1.38263L5.68432 1.44037C5.13229 1.55175 4.53652 1.80488 4.01678 2.14892C3.65071 2.39121 3.02156 3.02376 2.77055 3.40187C2.43926 3.90095 2.20216 4.45808 2.07075 5.04634C2.0148 5.29679 2.00539 5.49244 1.98488 6.82811C1.95944 8.48586 1.94287 8.65604 1.74991 9.23955C1.51294 9.95613 1.15796 10.5162 0.568632 11.1031C0.0577666 11.612 0 11.7207 0 12.1734C0 12.4508 0.00962777 12.5056 0.0855246 12.6601C0.250916 12.9969 0.577291 13.2438 0.949836 13.3139C1.19228 13.3595 12.0996 13.3574 12.3494 13.3116C12.7082 13.2459 13.0347 12.9958 13.1995 12.6601C13.2754 12.5056 13.2851 12.4508 13.2851 12.1734C13.2851 11.724 13.2229 11.6042 12.7445 11.1322C12.3383 10.7314 12.1551 10.5056 11.9363 10.1354C11.664 9.67489 11.4777 9.17172 11.3773 8.6255C11.3329 8.3838 11.3185 8.04927 11.3 6.82811C11.2798 5.49041 11.2706 5.29717 11.2144 5.04634C11.0063 4.11626 10.6098 3.39846 9.92679 2.71546C9.25241 2.04101 8.48047 1.61786 7.60075 1.44037L7.3146 1.38263L7.29897 0.916938C7.28212 0.414794 7.26143 0.341523 7.09076 0.179414C6.90739 0.00523853 6.61712 -0.0494647 6.39246 0.0478445ZM4.20433 14.048C4.20433 14.1516 4.39967 14.6188 4.52993 14.8267C5.06755 15.6847 6.11016 16.1465 7.08522 15.9584C7.77117 15.826 8.34287 15.4454 8.73063 14.8629C8.86861 14.6556 9.07749 14.1732 9.0797 14.0567C9.08067 14.0051 8.9442 14.002 6.64253 14.002C4.5173 14.002 4.20433 14.008 4.20433 14.048Z" fill="black"/>
</svg>
