<svg width="683.23pt" height="683.23pt" version="1.1" viewBox="0 0 683.23 683.23" xmlns="http://www.w3.org/2000/svg">
 <g transform="translate(-9.2034 -10.096)">
  <g transform="matrix(1.5366 0 0 1.5366 -186.99 -78.535)" fill="#020202">
   <path d="m350 321.44c-52.641 0-95.199-42.559-95.199-95.199 0-52.641 42.559-95.199 95.199-95.199s95.199 42.559 95.199 95.199c0 52.637-42.559 95.199-95.199 95.199zm0-156.8c-34.16 0-61.602 27.441-61.602 61.602 0 34.16 27.441 61.602 61.602 61.602s61.602-27.441 61.602-61.602c0-34.164-27.441-61.602-61.602-61.602z"/>
   <path d="m350 502.32c-122.64 0-222.32-99.68-222.32-222.32s99.68-222.32 222.32-222.32 222.32 99.68 222.32 222.32-99.68 222.32-222.32 222.32zm0-411.04c-104.16 0-188.72 84.559-188.72 188.72s84.559 188.72 188.72 188.72 188.72-84.559 188.72-188.72-84.559-188.72-188.72-188.72z"/>
   <path d="m218.96 434.56-28-18.48c35.281-53.762 95.199-85.68 159.6-85.68 63.281 0 122.64 31.359 158.48 84l-28 19.039c-30.242-43.676-78.965-69.996-131.04-69.996-53.199 0-101.92 26.32-131.04 71.117z"/>
  </g>
 </g>
</svg>
