<svg width="24" height="17" viewBox="0 0 24 17" fill="none" xmlns="http://www.w3.org/2000/svg">
<path fill-rule="evenodd" clip-rule="evenodd" d="M0.43679 0.0551134C0.126369 0.190659 -0.052731 0.550736 0.0138214 0.905464C0.0549825 1.12497 0.289418 1.38428 0.50217 1.44567C0.6211 1.47998 4.18625 1.49096 12.1105 1.48144L23.5472 1.46769L23.6769 1.37091C23.9231 1.18702 24 1.03702 24 0.740209C24 0.443398 23.9231 0.293397 23.6769 0.10951L23.5472 0.012732L12.0636 0.00268825C2.58782 -0.00561907 0.554923 0.00357984 0.43679 0.0551134ZM0.43679 7.56455C0.126369 7.7001 -0.052731 8.06017 0.0138214 8.4149C0.0549825 8.63441 0.289418 8.89372 0.50217 8.95511C0.6211 8.98942 4.18625 9.0004 12.1105 8.99088L23.5472 8.97712L23.6769 8.88035C23.9231 8.69646 24 8.54646 24 8.24965C24 7.95284 23.9231 7.80284 23.6769 7.61895L23.5472 7.52217L12.0636 7.51213C2.58782 7.50382 0.554923 7.51302 0.43679 7.56455ZM0.43679 15.074C0.126369 15.2095 -0.052731 15.5696 0.0138214 15.9243C0.0549825 16.1439 0.289418 16.4032 0.50217 16.4646C0.6211 16.4989 4.18625 16.5098 12.1105 16.5003L23.5472 16.4866L23.6769 16.3898C23.9231 16.2059 24 16.0559 24 15.7591C24 15.4623 23.9231 15.3123 23.6769 15.1284L23.5472 15.0316L12.0636 15.0216C2.58782 15.0133 0.554923 15.0225 0.43679 15.074Z" fill="black"/>
</svg>
