<svg width="22" height="23" viewBox="0 0 22 23" fill="none" xmlns="http://www.w3.org/2000/svg">
<g filter="url(#filter0_d_1026_87)">
<path d="M18.7944 17.8705L14.7781 13.6933C15.8108 12.4657 16.3765 10.9212 16.3765 9.31327C16.3765 5.55649 13.3201 2.5 9.56327 2.5C5.80649 2.5 2.75 5.55649 2.75 9.31327C2.75 13.0701 5.80649 16.1265 9.56327 16.1265C10.9736 16.1265 12.3176 15.7012 13.4667 14.8936L17.5135 19.1025C17.6826 19.2781 17.9101 19.375 18.1539 19.375C18.3847 19.375 18.6036 19.287 18.7698 19.1271C19.1229 18.7873 19.1341 18.2239 18.7944 17.8705ZM9.56327 4.27738C12.3401 4.27738 14.5992 6.53642 14.5992 9.31327C14.5992 12.0901 12.3401 14.3492 9.56327 14.3492C6.78642 14.3492 4.52738 12.0901 4.52738 9.31327C4.52738 6.53642 6.78642 4.27738 9.56327 4.27738Z" fill="black"/>
</g>
<defs>
<filter id="filter0_d_1026_87" x="0.75" y="0.5" width="24.292" height="24.875" filterUnits="userSpaceOnUse" color-interpolation-filters="sRGB">
<feFlood flood-opacity="0" result="BackgroundImageFix"/>
<feColorMatrix in="SourceAlpha" type="matrix" values="0 0 0 0 0 0 0 0 0 0 0 0 0 0 0 0 0 0 127 0" result="hardAlpha"/>
<feOffset dx="2" dy="2"/>
<feGaussianBlur stdDeviation="2"/>
<feComposite in2="hardAlpha" operator="out"/>
<feColorMatrix type="matrix" values="0 0 0 0 0 0 0 0 0 0 0 0 0 0 0 0 0 0 0.15 0"/>
<feBlend mode="normal" in2="BackgroundImageFix" result="effect1_dropShadow_1026_87"/>
<feBlend mode="normal" in="SourceGraphic" in2="effect1_dropShadow_1026_87" result="shape"/>
</filter>
</defs>
</svg>
