<?xml version="1.0" encoding="UTF-8" standalone="no"?>
<svg
   xmlns:dc="http://purl.org/dc/elements/1.1/"
   xmlns:cc="http://creativecommons.org/ns#"
   xmlns:rdf="http://www.w3.org/1999/02/22-rdf-syntax-ns#"
   xmlns:svg="http://www.w3.org/2000/svg"
   xmlns="http://www.w3.org/2000/svg"
   xmlns:sodipodi="http://sodipodi.sourceforge.net/DTD/sodipodi-0.dtd"
   xmlns:inkscape="http://www.inkscape.org/namespaces/inkscape"
   width="700pt"
   height="700pt"
   version="1.1"
   viewBox="0 0 700 700"
   id="svg141"
   sodipodi:docname="noun-mute-1300640.svg"
   inkscape:version="1.0.1 (3bc2e813f5, 2020-09-07)">
  <metadata
     id="metadata145">
    <rdf:RDF>
      <cc:Work
         rdf:about="">
        <dc:format>image/svg+xml</dc:format>
        <dc:type
           rdf:resource="http://purl.org/dc/dcmitype/StillImage" />
      </cc:Work>
    </rdf:RDF>
  </metadata>
  <sodipodi:namedview
     pagecolor="#ffffff"
     bordercolor="#666666"
     borderopacity="1"
     objecttolerance="10"
     gridtolerance="10"
     guidetolerance="10"
     inkscape:pageopacity="0"
     inkscape:pageshadow="2"
     inkscape:window-width="1366"
     inkscape:window-height="745"
     id="namedview143"
     showgrid="false"
     inkscape:zoom="0.59546703"
     inkscape:cx="466.66667"
     inkscape:cy="466.66667"
     inkscape:window-x="-8"
     inkscape:window-y="-8"
     inkscape:window-maximized="1"
     inkscape:current-layer="g139" />
  <defs
     id="defs65">
    <symbol
       id="u"
       overflow="visible">
      <path
         d="m19.234-1.1562c-0.99219 0.52344-2.0234 0.91406-3.0938 1.1719-1.0742 0.25781-2.1953 0.39062-3.3594 0.39062-3.4922 0-6.2578-0.97266-8.2969-2.9219-2.0312-1.9453-3.0469-4.5938-3.0469-7.9375s1.0156-5.9883 3.0469-7.9375c2.0391-1.9453 4.8047-2.9219 8.2969-2.9219 1.1641 0 2.2852 0.13281 3.3594 0.39062 1.0703 0.26172 2.1016 0.64844 3.0938 1.1562v4.3438c-1-0.6875-1.9844-1.1875-2.9531-1.5-0.96875-0.32031-1.9961-0.48438-3.0781-0.48438-1.918 0-3.4297 0.62109-4.5312 1.8594-1.1055 1.2305-1.6562 2.9297-1.6562 5.0938 0 2.168 0.55078 3.8711 1.6562 5.1094 1.1016 1.2305 2.6133 1.8438 4.5312 1.8438 1.082 0 2.1094-0.15625 3.0781-0.46875 0.96875-0.32031 1.9531-0.82812 2.9531-1.5156z"
         id="path2" />
    </symbol>
    <symbol
       id="d"
       overflow="visible">
      <path
         d="m14.078-11.422c-0.4375-0.20703-0.875-0.35938-1.3125-0.45312-0.4375-0.10156-0.875-0.15625-1.3125-0.15625-1.293 0-2.2891 0.41797-2.9844 1.25-0.6875 0.82422-1.0312 2.0078-1.0312 3.5469v7.2344h-5.0312v-15.703h5.0312v2.5781c0.64453-1.0312 1.3828-1.7812 2.2188-2.25 0.83203-0.46875 1.832-0.70312 3-0.70312 0.17578 0 0.35938 0.007813 0.54688 0.015625 0.19531 0.011719 0.48438 0.042969 0.85938 0.09375z"
         id="path5" />
    </symbol>
    <symbol
       id="a"
       overflow="visible">
      <path
         d="m18.094-7.8906v1.4219h-11.734c0.11328 1.1797 0.53516 2.0625 1.2656 2.6562 0.72656 0.58594 1.75 0.875 3.0625 0.875 1.0508 0 2.1289-0.15625 3.2344-0.46875 1.1133-0.3125 2.2539-0.78516 3.4219-1.4219v3.875c-1.1875 0.44922-2.375 0.78906-3.5625 1.0156s-2.375 0.34375-3.5625 0.34375c-2.8438 0-5.0547-0.71875-6.625-2.1562-1.5742-1.4453-2.3594-3.4766-2.3594-6.0938 0-2.5625 0.76953-4.5703 2.3125-6.0312 1.5508-1.4688 3.6797-2.2031 6.3906-2.2031 2.4688 0 4.4414 0.74609 5.9219 2.2344 1.4883 1.4805 2.2344 3.4648 2.2344 5.9531zm-5.1719-1.6719c0-0.95703-0.27734-1.7266-0.82812-2.3125-0.55469-0.58203-1.2773-0.875-2.1719-0.875-0.98047 0-1.7773 0.27734-2.3906 0.82812-0.60547 0.54297-0.98047 1.3281-1.125 2.3594z"
         id="path8" />
    </symbol>
    <symbol
       id="k"
       overflow="visible">
      <path
         d="m9.4531-7.0625c-1.0547 0-1.8438 0.17969-2.375 0.53125-0.52344 0.35547-0.78125 0.875-0.78125 1.5625 0 0.63672 0.21094 1.1367 0.64062 1.5 0.42578 0.35547 1.0156 0.53125 1.7656 0.53125 0.94531 0 1.7422-0.33594 2.3906-1.0156 0.64453-0.67578 0.96875-1.5234 0.96875-2.5469v-0.5625zm7.6719-1.8906v8.9531h-5.0625v-2.3281c-0.67969 0.96094-1.4375 1.6562-2.2812 2.0938-0.83594 0.42578-1.8555 0.64062-3.0625 0.64062-1.625 0-2.9492-0.47266-3.9688-1.4219-1.0117-0.94531-1.5156-2.1797-1.5156-3.7031 0-1.832 0.62891-3.1758 1.8906-4.0312 1.2695-0.86328 3.2578-1.2969 5.9688-1.2969h2.9688v-0.40625c0-0.78906-0.3125-1.3672-0.9375-1.7344-0.625-0.375-1.6055-0.5625-2.9375-0.5625-1.0742 0-2.0742 0.10938-3 0.32812-0.92969 0.21094-1.7891 0.53125-2.5781 0.96875v-3.8281c1.0703-0.25781 2.1484-0.45703 3.2344-0.59375 1.082-0.13281 2.1641-0.20312 3.25-0.20312 2.832 0 4.8789 0.55859 6.1406 1.6719 1.2578 1.1172 1.8906 2.9336 1.8906 5.4531z"
         id="path11" />
    </symbol>
    <symbol
       id="c"
       overflow="visible">
      <path
         d="m7.8906-20.172v4.4688h5.1719v3.5938h-5.1719v6.6562c0 0.73047 0.14453 1.2266 0.4375 1.4844 0.28906 0.25 0.86328 0.375 1.7188 0.375h2.5938v3.5938h-4.3125c-1.9805 0-3.3867-0.41016-4.2188-1.2344-0.82422-0.83203-1.2344-2.2383-1.2344-4.2188v-6.6562h-2.5v-3.5938h2.5v-4.4688z"
         id="path14" />
    </symbol>
    <symbol
       id="j"
       overflow="visible">
      <path
         d="m13.094-13.406v-8.4062h5.0469v21.812h-5.0469v-2.2656c-0.6875 0.91797-1.4492 1.5938-2.2812 2.0312-0.83594 0.42578-1.7969 0.64062-2.8906 0.64062-1.9375 0-3.5273-0.76562-4.7656-2.2969-1.2422-1.5391-1.8594-3.5234-1.8594-5.9531 0-2.4141 0.61719-4.3906 1.8594-5.9219 1.2383-1.5391 2.8281-2.3125 4.7656-2.3125 1.082 0 2.0391 0.21875 2.875 0.65625 0.84375 0.42969 1.6094 1.1016 2.2969 2.0156zm-3.3125 10.172c1.082 0 1.9062-0.39062 2.4688-1.1719 0.5625-0.78906 0.84375-1.9375 0.84375-3.4375 0-1.4883-0.28125-2.625-0.84375-3.4062-0.5625-0.78906-1.3867-1.1875-2.4688-1.1875-1.0625 0-1.875 0.39844-2.4375 1.1875-0.5625 0.78125-0.84375 1.918-0.84375 3.4062 0 1.5 0.28125 2.6484 0.84375 3.4375 0.5625 0.78125 1.375 1.1719 2.4375 1.1719z"
         id="path17" />
    </symbol>
    <symbol
       id="i"
       overflow="visible">
      <path
         d="m10.766-3.2344c1.0703 0 1.8906-0.39062 2.4531-1.1719 0.57031-0.78906 0.85938-1.9375 0.85938-3.4375 0-1.4883-0.28906-2.625-0.85938-3.4062-0.5625-0.78906-1.3828-1.1875-2.4531-1.1875-1.0742 0-1.8984 0.39844-2.4688 1.1875-0.57422 0.79297-0.85938 1.9297-0.85938 3.4062 0 1.4922 0.28516 2.6328 0.85938 3.4219 0.57031 0.79297 1.3945 1.1875 2.4688 1.1875zm-3.3281-10.172c0.6875-0.91406 1.4531-1.5859 2.2969-2.0156 0.84375-0.4375 1.8125-0.65625 2.9062-0.65625 1.9258 0 3.5078 0.77344 4.75 2.3125 1.25 1.5312 1.875 3.5078 1.875 5.9219 0 2.4297-0.625 4.4141-1.875 5.9531-1.2422 1.5312-2.8242 2.2969-4.75 2.2969-1.0938 0-2.0625-0.21484-2.9062-0.64062-0.84375-0.4375-1.6094-1.1133-2.2969-2.0312v2.2656h-5.0312v-21.812h5.0312z"
         id="path20" />
    </symbol>
    <symbol
       id="f"
       overflow="visible">
      <path
         d="m0.34375-15.703h5.0312l4.2188 10.656 3.5938-10.656h5.0156l-6.6094 17.188c-0.66797 1.75-1.4453 2.9727-2.3281 3.6719-0.875 0.69531-2.0391 1.0469-3.4844 1.0469h-2.9062v-3.2969h1.5625c0.85156 0 1.4727-0.13672 1.8594-0.40625 0.39453-0.27344 0.69531-0.76172 0.90625-1.4688l0.14062-0.42188z"
         id="path23" />
    </symbol>
    <symbol
       id="h"
       overflow="visible">
      <path
         d="m2.6406-20.938h5.3906v18.906c0 2.6016-0.71094 4.5508-2.125 5.8438-1.418 1.2891-3.5586 1.9375-6.4219 1.9375h-1.0938v-4.0781h0.84375c1.1133 0 1.957-0.3125 2.5312-0.9375 0.58203-0.625 0.875-1.5469 0.875-2.7656z"
         id="path26" />
    </symbol>
    <symbol
       id="b"
       overflow="visible">
      <path
         d="m9.8906-12.5c-1.1172 0-1.9648 0.40234-2.5469 1.2031-0.58594 0.80469-0.875 1.9531-0.875 3.4531 0 1.5117 0.28906 2.668 0.875 3.4688 0.58203 0.79297 1.4297 1.1875 2.5469 1.1875 1.0938 0 1.9258-0.39453 2.5-1.1875 0.58203-0.80078 0.875-1.957 0.875-3.4688 0-1.5-0.29297-2.6484-0.875-3.4531-0.57422-0.80078-1.4062-1.2031-2.5-1.2031zm0-3.5781c2.6953 0 4.8047 0.73047 6.3281 2.1875 1.5195 1.4609 2.2812 3.4766 2.2812 6.0469 0 2.5859-0.76172 4.6055-2.2812 6.0625-1.5234 1.4609-3.6328 2.1875-6.3281 2.1875-2.7188 0-4.8438-0.72656-6.375-2.1875-1.5234-1.457-2.2812-3.4766-2.2812-6.0625 0-2.5703 0.75781-4.5859 2.2812-6.0469 1.5312-1.457 3.6562-2.1875 6.375-2.1875z"
         id="path29" />
    </symbol>
    <symbol
       id="g"
       overflow="visible">
      <path
         d="m18.203-9.5625v9.5625h-5.0469v-7.2969c0-1.375-0.03125-2.3164-0.09375-2.8281-0.0625-0.50781-0.16797-0.89062-0.3125-1.1406-0.19922-0.32031-0.46875-0.57031-0.8125-0.75-0.33594-0.1875-0.71484-0.28125-1.1406-0.28125-1.043 0-1.8672 0.40625-2.4688 1.2188-0.59375 0.80469-0.89062 1.918-0.89062 3.3438v7.7344h-5.0312v-21.812h5.0312v8.4062c0.75-0.91406 1.5508-1.5859 2.4062-2.0156 0.85156-0.4375 1.7891-0.65625 2.8125-0.65625 1.8203 0 3.2031 0.55859 4.1406 1.6719 0.9375 1.1055 1.4062 2.7188 1.4062 4.8438z"
         id="path32" />
    </symbol>
    <symbol
       id="e"
       overflow="visible">
      <path
         d="m18.203-9.5625v9.5625h-5.0469v-7.3125c0-1.3633-0.03125-2.3008-0.09375-2.8125-0.0625-0.50781-0.16797-0.89062-0.3125-1.1406-0.19922-0.32031-0.46875-0.57031-0.8125-0.75-0.33594-0.1875-0.71484-0.28125-1.1406-0.28125-1.043 0-1.8672 0.40625-2.4688 1.2188-0.59375 0.80469-0.89062 1.918-0.89062 3.3438v7.7344h-5.0312v-15.703h5.0312v2.2969c0.75-0.91406 1.5508-1.5859 2.4062-2.0156 0.85156-0.4375 1.7891-0.65625 2.8125-0.65625 1.8203 0 3.2031 0.55859 4.1406 1.6719 0.9375 1.1055 1.4062 2.7188 1.4062 4.8438z"
         id="path35" />
    </symbol>
    <symbol
       id="t"
       overflow="visible">
      <path
         d="m1.6094-20.938h17.609v3.2656l-11.234 13.594h11.547v4.0781h-18.234v-3.2656l11.219-13.594h-10.906z"
         id="path38" />
    </symbol>
    <symbol
       id="s"
       overflow="visible">
      <path
         d="m2.4062-15.703h5.0312v15.703h-5.0312zm0-6.1094h5.0312v4.0938h-5.0312z"
         id="path41" />
    </symbol>
    <symbol
       id="r"
       overflow="visible">
      <path
         d="m12.75-21.812v3.2812h-2.7812c-0.71094 0-1.2031 0.13281-1.4844 0.39062-0.28125 0.26172-0.42188 0.71094-0.42188 1.3438v1.0938h4.2969v3.5938h-4.2969v12.109h-5.0156v-12.109h-2.5v-3.5938h2.5v-1.0938c0-1.707 0.47266-2.9688 1.4219-3.7812 0.95703-0.82031 2.4375-1.2344 4.4375-1.2344z"
         id="path44" />
    </symbol>
    <symbol
       id="q"
       overflow="visible">
      <path
         d="m16.969-13.094c0.63281-0.97656 1.3906-1.7188 2.2656-2.2188 0.875-0.50781 1.832-0.76562 2.875-0.76562 1.8125 0 3.1875 0.55859 4.125 1.6719 0.94531 1.1055 1.4219 2.7188 1.4219 4.8438v9.5625h-5.0469v-8.1875c0.007813-0.125 0.015625-0.25 0.015625-0.375 0.007812-0.13281 0.015625-0.32031 0.015625-0.5625 0-1.1133-0.16797-1.9219-0.5-2.4219-0.32422-0.5-0.85156-0.75-1.5781-0.75-0.96094 0-1.6992 0.39844-2.2188 1.1875-0.51172 0.78125-0.77734 1.9141-0.79688 3.3906v7.7188h-5.0469v-8.1875c0-1.7383-0.15234-2.8594-0.45312-3.3594-0.30469-0.5-0.83594-0.75-1.5938-0.75-0.96875 0-1.7148 0.39844-2.2344 1.1875-0.52344 0.79297-0.78125 1.918-0.78125 3.375v7.7344h-5.0469v-15.703h5.0469v2.2969c0.61328-0.88281 1.3164-1.5508 2.1094-2 0.80078-0.44531 1.6875-0.67188 2.6562-0.67188 1.082 0 2.0391 0.26172 2.875 0.78125 0.83203 0.52344 1.4609 1.2578 1.8906 2.2031z"
         id="path47" />
    </symbol>
    <symbol
       id="p"
       overflow="visible">
      <path
         d="m2.6406-20.938h6.0312l7.6094 14.359v-14.359h5.125v20.938h-6.0312l-7.625-14.359v14.359h-5.1094z"
         id="path50" />
    </symbol>
    <symbol
       id="o"
       overflow="visible">
      <path
         d="m2.25-6.1094v-9.5938h5.0469v1.5625c0 0.85547-0.007813 1.9297-0.015625 3.2188-0.011719 1.2812-0.015625 2.1367-0.015625 2.5625 0 1.2617 0.03125 2.1719 0.09375 2.7344 0.0625 0.55469 0.17578 0.95312 0.34375 1.2031 0.19531 0.33594 0.46094 0.58984 0.79688 0.76562 0.33203 0.17969 0.71094 0.26562 1.1406 0.26562 1.0508 0 1.875-0.39844 2.4688-1.2031 0.60156-0.8125 0.90625-1.9297 0.90625-3.3594v-7.75h5.0156v15.703h-5.0156v-2.2656c-0.76172 0.91797-1.5625 1.5938-2.4062 2.0312-0.84375 0.42578-1.7773 0.64062-2.7969 0.64062-1.8125 0-3.1953-0.55469-4.1406-1.6719-0.94922-1.1133-1.4219-2.7266-1.4219-4.8438z"
         id="path53" />
    </symbol>
    <symbol
       id="n"
       overflow="visible">
      <path
         d="m2.6406-20.938h8.9531c2.6641 0 4.7109 0.59375 6.1406 1.7812 1.4258 1.1797 2.1406 2.8594 2.1406 5.0469 0 2.1992-0.71484 3.8906-2.1406 5.0781-1.4297 1.1797-3.4766 1.7656-6.1406 1.7656h-3.5625v7.2656h-5.3906zm5.3906 3.9062v5.8594h2.9844c1.0508 0 1.8594-0.25391 2.4219-0.76562 0.57031-0.50781 0.85938-1.2344 0.85938-2.1719s-0.28906-1.6562-0.85938-2.1562c-0.5625-0.50781-1.3711-0.76562-2.4219-0.76562z"
         id="path56" />
    </symbol>
    <symbol
       id="m"
       overflow="visible">
      <path
         d="m2.4062-15.703h5.0312v15.422c0 2.1016-0.50781 3.707-1.5156 4.8125-1.0117 1.1133-2.4766 1.6719-4.3906 1.6719h-2.4844v-3.2969h0.875c0.94531 0 1.5977-0.21875 1.9531-0.65625 0.35156-0.42969 0.53125-1.2734 0.53125-2.5312zm0-6.1094h5.0312v4.0938h-5.0312z"
         id="path59" />
    </symbol>
    <symbol
       id="l"
       overflow="visible">
      <path
         d="m15.109-15.219v4.0938c-0.6875-0.46875-1.375-0.8125-2.0625-1.0312-0.6875-0.22656-1.4023-0.34375-2.1406-0.34375-1.3984 0-2.4844 0.41406-3.2656 1.2344-0.78125 0.8125-1.1719 1.9531-1.1719 3.4219s0.39062 2.6172 1.1719 3.4375c0.78125 0.8125 1.8672 1.2188 3.2656 1.2188 0.78906 0 1.5352-0.11328 2.2344-0.34375 0.70703-0.23828 1.3633-0.58594 1.9688-1.0469v4.1094c-0.79297 0.29297-1.5938 0.50781-2.4062 0.65625-0.80469 0.14453-1.6094 0.21875-2.4219 0.21875-2.8359 0-5.0547-0.72266-6.6562-2.1719-1.5938-1.457-2.3906-3.4844-2.3906-6.0781 0-2.582 0.79688-4.5977 2.3906-6.0469 1.6016-1.457 3.8203-2.1875 6.6562-2.1875 0.82031 0 1.6289 0.074219 2.4219 0.21875 0.80078 0.13672 1.6016 0.35156 2.4062 0.64062z"
         id="path62" />
    </symbol>
  </defs>
  <g
     id="g139">
    <path
       d="m 350.00001,5.76273 c -91.29845,0 -178.85458,36.267596 -243.4109,100.82638 C 42.030325,171.14297 5.7627338,258.70402 5.7627338,350.00001 c 0,91.29599 36.2675912,178.85458 100.8263762,243.4109 64.55386,64.55878 152.11491,100.82638 243.4109,100.82638 91.29599,0 178.85458,-36.2676 243.4109,-100.82638 64.55878,-64.55387 100.82637,-152.11491 100.82637,-243.4109 0,-91.29599 -36.26759,-178.85457 -100.82637,-243.4109 C 528.85704,42.030326 441.296,5.76273 350.00001,5.76273 Z M 178.55878,332.90875 c 0.0191,-13.62923 5.44112,-26.69172 15.07502,-36.33029 9.63833,-9.63833 22.70106,-15.06028 36.3303,-15.07503 h 33.32807 c 25.70206,-50.69841 85.08871,-85.72308 146.65633,-85.72308 v -0.004 c 2.26678,0 4.44224,0.90286 6.04145,2.5021 1.60401,1.60401 2.50209,3.77945 2.50209,6.04144 v 35.30743 L 234.47395,418.62901 h -4.51908 c -13.62923,-0.0191 -26.69172,-5.44113 -36.33029,-15.07994 -9.63353,-9.63355 -15.05536,-22.70106 -15.07502,-36.32539 z m 14.12346,175.19094 -0.004,-0.004 c -3.30404,-3.20324 -5.16733,-7.61177 -5.16733,-12.21247 0,-4.60549 1.86329,-9.01404 5.16733,-12.21726 L 492.35831,192.03668 c 6.88188,-5.92133 17.18347,-5.4651 23.50756,1.04691 6.3247,6.51207 6.48317,16.82325 0.36018,23.52722 L 216.26228,508.09164 c -6.71368,6.2191 -17.08264,6.2191 -23.79522,0 z m 225.95327,-12.35681 v -0.004 c 0,2.26679 -0.90285,4.44223 -2.50209,6.04145 -1.60401,1.60401 -3.77466,2.50209 -6.04145,2.50209 -43.57152,-0.23051 -85.44399,-16.92897 -117.21686,-46.74217 L 418.55769,335.44786 Z m 54.16167,-69.05842 v -0.004 c -4.48539,1.52239 -9.35508,-0.88364 -10.87746,-5.36428 -1.52237,-4.48538 0.88364,-9.35507 5.36908,-10.87745 22.17241,-7.48687 37.06918,-31.84419 37.06918,-60.44272 0,-31.70525 -14.12347,-49.07559 -37.99123,-61.00947 l 13.27393,-12.85102 c 25.35168,12.07317 41.87248,40.74387 41.87248,73.86049 -0.0672,36.08565 -19.62753,66.86884 -48.7879,76.75699 z"
       id="path67"
       style="stroke-width:1" />
  </g>
</svg>
