<?xml version="1.0" encoding="UTF-8" standalone="no"?>
<svg
   xmlns:dc="http://purl.org/dc/elements/1.1/"
   xmlns:cc="http://creativecommons.org/ns#"
   xmlns:rdf="http://www.w3.org/1999/02/22-rdf-syntax-ns#"
   xmlns:svg="http://www.w3.org/2000/svg"
   xmlns="http://www.w3.org/2000/svg"
   xmlns:sodipodi="http://sodipodi.sourceforge.net/DTD/sodipodi-0.dtd"
   xmlns:inkscape="http://www.inkscape.org/namespaces/inkscape"
   width="700pt"
   height="700pt"
   version="1.1"
   viewBox="0 0 700 700"
   id="svg150"
   sodipodi:docname="noun-play-3961832.svg"
   inkscape:version="1.0.1 (3bc2e813f5, 2020-09-07)">
  <metadata
     id="metadata154">
    <rdf:RDF>
      <cc:Work
         rdf:about="">
        <dc:format>image/svg+xml</dc:format>
        <dc:type
           rdf:resource="http://purl.org/dc/dcmitype/StillImage" />
      </cc:Work>
    </rdf:RDF>
  </metadata>
  <sodipodi:namedview
     pagecolor="#ffffff"
     bordercolor="#666666"
     borderopacity="1"
     objecttolerance="10"
     gridtolerance="10"
     guidetolerance="10"
     inkscape:pageopacity="0"
     inkscape:pageshadow="2"
     inkscape:window-width="1366"
     inkscape:window-height="745"
     id="namedview152"
     showgrid="false"
     inkscape:zoom="0.59546703"
     inkscape:cx="229.03806"
     inkscape:cy="466.66667"
     inkscape:window-x="-8"
     inkscape:window-y="-8"
     inkscape:window-maximized="1"
     inkscape:current-layer="g148" />
  <defs
     id="defs68">
    <symbol
       id="v"
       overflow="visible">
      <path
         d="m21.312-1.2812c-1.0938 0.57422-2.2422 1.0078-3.4375 1.2969-1.1875 0.28906-2.4297 0.4375-3.7188 0.4375-3.8672 0-6.9297-1.0781-9.1875-3.2344-2.2617-2.1641-3.3906-5.0977-3.3906-8.7969 0-3.707 1.1289-6.6406 3.3906-8.7969 2.2578-2.1562 5.3203-3.2344 9.1875-3.2344 1.2891 0 2.5312 0.14844 3.7188 0.4375 1.1953 0.29297 2.3438 0.71875 3.4375 1.2812v4.7969c-1.1055-0.75-2.1992-1.3008-3.2812-1.6562-1.0742-0.35156-2.2109-0.53125-3.4062-0.53125-2.125 0-3.8047 0.6875-5.0312 2.0625-1.2188 1.3672-1.8281 3.2461-1.8281 5.6406 0 2.3984 0.60938 4.2773 1.8281 5.6406 1.2266 1.3672 2.9062 2.0469 5.0312 2.0469 1.1953 0 2.332-0.17188 3.4062-0.51562 1.082-0.35156 2.1758-0.91016 3.2812-1.6719z"
         id="path2" />
    </symbol>
    <symbol
       id="b"
       overflow="visible">
      <path
         d="m15.594-12.656c-0.49219-0.22656-0.97656-0.39453-1.4531-0.5-0.48047-0.11328-0.96484-0.17188-1.4531-0.17188-1.4297 0-2.5273 0.46094-3.2969 1.375-0.77344 0.91797-1.1562 2.2305-1.1562 3.9375v8.0156h-5.5625v-17.391h5.5625v2.8438c0.70703-1.1328 1.5234-1.9609 2.4531-2.4844 0.92578-0.51953 2.0391-0.78125 3.3438-0.78125 0.1875 0 0.38281 0.011719 0.59375 0.03125 0.21875 0.011719 0.53516 0.042969 0.95312 0.09375z"
         id="path5" />
    </symbol>
    <symbol
       id="a"
       overflow="visible">
      <path
         d="m20.031-8.75v1.5938h-13c0.13281 1.3047 0.60156 2.2812 1.4062 2.9375 0.8125 0.64844 1.9453 0.96875 3.4062 0.96875 1.1641 0 2.3594-0.17188 3.5781-0.51562 1.2266-0.34375 2.4922-0.86719 3.7969-1.5781v4.2812c-1.3242 0.5-2.6406 0.875-3.9531 1.125-1.3125 0.25781-2.625 0.39062-3.9375 0.39062-3.1484 0-5.5938-0.79688-7.3438-2.3906-1.75-1.6016-2.625-3.8516-2.625-6.75 0-2.832 0.85938-5.0625 2.5781-6.6875s4.0781-2.4375 7.0781-2.4375c2.7266 0 4.9102 0.82422 6.5469 2.4688 1.6445 1.6484 2.4688 3.8438 2.4688 6.5938zm-5.7031-1.8438c0-1.0508-0.3125-1.8984-0.9375-2.5469-0.61719-0.65625-1.418-0.98438-2.4062-0.98438-1.0859 0-1.9648 0.30859-2.6406 0.92188-0.66797 0.60547-1.0859 1.4766-1.25 2.6094z"
         id="path8" />
    </symbol>
    <symbol
       id="d"
       overflow="visible">
      <path
         d="m10.469-7.8281c-1.1562 0-2.0312 0.19922-2.625 0.59375-0.58594 0.39844-0.875 0.97656-0.875 1.7344 0 0.71094 0.23438 1.2617 0.70312 1.6562 0.47656 0.39844 1.1328 0.59375 1.9688 0.59375 1.0508 0 1.9297-0.375 2.6406-1.125 0.71875-0.75 1.0781-1.6875 1.0781-2.8125v-0.64062zm8.5-2.0938v9.9219h-5.6094v-2.5781c-0.75 1.0547-1.5938 1.8242-2.5312 2.3125-0.92969 0.47656-2.0586 0.71875-3.3906 0.71875-1.8047 0-3.2656-0.52344-4.3906-1.5781-1.125-1.0508-1.6875-2.4141-1.6875-4.0938 0-2.0391 0.70312-3.5352 2.1094-4.4844 1.4062-0.95703 3.6094-1.4375 6.6094-1.4375h3.2812v-0.4375c0-0.875-0.35156-1.5156-1.0469-1.9219-0.6875-0.41406-1.7656-0.625-3.2344-0.625-1.1992 0-2.3125 0.12109-3.3438 0.35938-1.0234 0.24219-1.9688 0.60156-2.8438 1.0781v-4.25c1.1875-0.28125 2.3789-0.49219 3.5781-0.64062 1.207-0.15625 2.4102-0.23438 3.6094-0.23438 3.1328 0 5.3984 0.62109 6.7969 1.8594 1.3945 1.2305 2.0938 3.2422 2.0938 6.0312z"
         id="path11" />
    </symbol>
    <symbol
       id="c"
       overflow="visible">
      <path
         d="m8.75-22.344v4.9531h5.7344v3.9688h-5.7344v7.375c0 0.8125 0.15625 1.3594 0.46875 1.6406 0.32031 0.28125 0.96094 0.42188 1.9219 0.42188h2.8594v3.9844h-4.7656c-2.1992 0-3.7578-0.45703-4.6719-1.375-0.91797-0.91406-1.375-2.4727-1.375-4.6719v-7.375h-2.7656v-3.9688h2.7656v-4.9531z"
         id="path14" />
    </symbol>
    <symbol
       id="l"
       overflow="visible">
      <path
         d="m14.516-14.844v-9.3281h5.5781v24.172h-5.5781v-2.5156c-0.77344 1.0234-1.6211 1.7734-2.5469 2.25-0.91797 0.47656-1.9805 0.71875-3.1875 0.71875-2.1484 0-3.9141-0.84766-5.2969-2.5469-1.375-1.707-2.0625-3.9062-2.0625-6.5938 0-2.6758 0.6875-4.8633 2.0625-6.5625 1.3828-1.707 3.1484-2.5625 5.2969-2.5625 1.1953 0 2.2578 0.24219 3.1875 0.71875 0.92578 0.48047 1.7734 1.2305 2.5469 2.25zm-3.6719 11.25c1.1875 0 2.0938-0.42969 2.7188-1.2969 0.63281-0.875 0.95312-2.1406 0.95312-3.7969s-0.32031-2.9141-0.95312-3.7812c-0.625-0.875-1.5312-1.3125-2.7188-1.3125-1.1797 0-2.0859 0.4375-2.7188 1.3125-0.625 0.86719-0.9375 2.125-0.9375 3.7812s0.3125 2.9219 0.9375 3.7969c0.63281 0.86719 1.5391 1.2969 2.7188 1.2969z"
         id="path17" />
    </symbol>
    <symbol
       id="k"
       overflow="visible">
      <path
         d="m11.938-3.5938c1.1875 0 2.0938-0.42969 2.7188-1.2969 0.625-0.875 0.9375-2.1406 0.9375-3.7969s-0.3125-2.9141-0.9375-3.7812c-0.625-0.875-1.5312-1.3125-2.7188-1.3125-1.1992 0-2.1172 0.4375-2.75 1.3125-0.63672 0.875-0.95312 2.1367-0.95312 3.7812 0 1.6484 0.31641 2.9062 0.95312 3.7812 0.63281 0.875 1.5508 1.3125 2.75 1.3125zm-3.7031-11.25c0.75781-1.0195 1.6016-1.7695 2.5312-2.25 0.9375-0.47656 2.0156-0.71875 3.2344-0.71875 2.1445 0 3.9062 0.85547 5.2812 2.5625 1.375 1.6992 2.0625 3.8867 2.0625 6.5625 0 2.6875-0.6875 4.8867-2.0625 6.5938-1.375 1.6992-3.1367 2.5469-5.2812 2.5469-1.2188 0-2.2969-0.24219-3.2344-0.71875-0.92969-0.48828-1.7734-1.2383-2.5312-2.25v2.5156h-5.5625v-24.172h5.5625z"
         id="path20" />
    </symbol>
    <symbol
       id="j"
       overflow="visible">
      <path
         d="m0.39062-17.391h5.5625l4.6719 11.797 3.9688-11.797h5.5625l-7.3125 19.031c-0.73047 1.9375-1.5859 3.2891-2.5625 4.0625-0.98047 0.76953-2.2734 1.1562-3.875 1.1562h-3.2188v-3.6406h1.7344c0.94531 0 1.6328-0.15234 2.0625-0.45312 0.42578-0.30469 0.75781-0.83984 1-1.6094l0.15625-0.48438z"
         id="path23" />
    </symbol>
    <symbol
       id="i"
       overflow="visible">
      <path
         d="m2.9219-23.188h5.9844v23.188h-5.9844z"
         id="path26" />
    </symbol>
    <symbol
       id="h"
       overflow="visible">
      <path
         d="m18.797-14.516c0.70703-1.0703 1.5391-1.8906 2.5-2.4531 0.96875-0.5625 2.0352-0.84375 3.2031-0.84375 2 0 3.5195 0.61719 4.5625 1.8438 1.0391 1.2305 1.5625 3.0234 1.5625 5.375v10.594h-5.5781v-9.0781c0.007813-0.13281 0.015625-0.26953 0.015625-0.40625 0.007812-0.14453 0.015625-0.35156 0.015625-0.625 0-1.2266-0.18359-2.1172-0.54688-2.6719-0.36719-0.5625-0.95312-0.84375-1.7656-0.84375-1.0547 0-1.8672 0.4375-2.4375 1.3125-0.57422 0.86719-0.87109 2.1211-0.89062 3.7656v8.5469h-5.5938v-9.0781c0-1.9141-0.16797-3.1484-0.5-3.7031-0.33594-0.5625-0.92188-0.84375-1.7656-0.84375-1.0742 0-1.9023 0.4375-2.4844 1.3125-0.57422 0.875-0.85938 2.125-0.85938 3.75v8.5625h-5.5938v-17.391h5.5938v2.5469c0.6875-0.98828 1.4727-1.7266 2.3594-2.2188 0.88281-0.5 1.8594-0.75 2.9219-0.75 1.1953 0 2.2539 0.29297 3.1719 0.875 0.92578 0.57422 1.6289 1.3828 2.1094 2.4219z"
         id="path29" />
    </symbol>
    <symbol
       id="g"
       overflow="visible">
      <path
         d="m20.156-10.594v10.594h-5.5781v-8.1094c0-1.5-0.039063-2.5312-0.10938-3.0938-0.0625-0.57031-0.17969-0.99219-0.34375-1.2656-0.21875-0.36328-0.51562-0.64453-0.89062-0.84375-0.375-0.20703-0.80469-0.3125-1.2812-0.3125-1.1562 0-2.0703 0.44922-2.7344 1.3438-0.65625 0.89844-0.98438 2.1367-0.98438 3.7188v8.5625h-5.5625v-17.391h5.5625v2.5469c0.83203-1.0195 1.7188-1.7695 2.6562-2.25 0.94531-0.47656 1.9922-0.71875 3.1406-0.71875 2.0078 0 3.5312 0.61719 4.5625 1.8438 1.0391 1.2305 1.5625 3.0234 1.5625 5.375z"
         id="path32" />
    </symbol>
    <symbol
       id="u"
       overflow="visible">
      <path
         d="m16.266-16.859v4.2344c-1.1875-0.5-2.3398-0.875-3.4531-1.125-1.1055-0.25-2.1523-0.375-3.1406-0.375-1.0547 0-1.8359 0.13672-2.3438 0.40625-0.51172 0.26172-0.76562 0.66797-0.76562 1.2188 0 0.4375 0.19141 0.77734 0.57812 1.0156 0.38281 0.24219 1.082 0.41797 2.0938 0.53125l0.96875 0.14062c2.8516 0.36719 4.7695 0.96484 5.75 1.7969 0.97656 0.82422 1.4688 2.1211 1.4688 3.8906 0 1.8555-0.68359 3.25-2.0469 4.1875-1.3672 0.92969-3.4023 1.3906-6.1094 1.3906-1.1562 0-2.3516-0.09375-3.5781-0.28125-1.2188-0.17578-2.4805-0.44531-3.7812-0.8125v-4.2188c1.1133 0.54297 2.25 0.94922 3.4062 1.2188 1.1641 0.26172 2.3516 0.39062 3.5625 0.39062 1.082 0 1.8945-0.14453 2.4375-0.4375 0.55078-0.30078 0.82812-0.75 0.82812-1.3438 0-0.5-0.1875-0.86719-0.5625-1.1094-0.375-0.25-1.1328-0.4375-2.2656-0.5625l-0.96875-0.125c-2.4805-0.3125-4.2188-0.88281-5.2188-1.7188-0.99219-0.84375-1.4844-2.1172-1.4844-3.8281 0-1.8438 0.62891-3.207 1.8906-4.0938 1.2695-0.89453 3.207-1.3438 5.8125-1.3438 1.0312 0 2.1094 0.078125 3.2344 0.23438 1.1328 0.15625 2.3633 0.39844 3.6875 0.71875z"
         id="path35" />
    </symbol>
    <symbol
       id="f"
       overflow="visible">
      <path
         d="m20.156-10.594v10.594h-5.5781v-8.0781c0-1.5195-0.039063-2.5625-0.10938-3.125-0.0625-0.57031-0.17969-0.99219-0.34375-1.2656-0.21875-0.36328-0.51562-0.64453-0.89062-0.84375-0.375-0.20703-0.80469-0.3125-1.2812-0.3125-1.1562 0-2.0703 0.44922-2.7344 1.3438-0.65625 0.89844-0.98438 2.1367-0.98438 3.7188v8.5625h-5.5625v-24.172h5.5625v9.3281c0.83203-1.0195 1.7188-1.7695 2.6562-2.25 0.94531-0.47656 1.9922-0.71875 3.1406-0.71875 2.0078 0 3.5312 0.61719 4.5625 1.8438 1.0391 1.2305 1.5625 3.0234 1.5625 5.375z"
         id="path38" />
    </symbol>
    <symbol
       id="t"
       overflow="visible">
      <path
         d="m2.6719-17.391h5.5625v17.391h-5.5625zm0-6.7812h5.5625v4.5312h-5.5625z"
         id="path41" />
    </symbol>
    <symbol
       id="s"
       overflow="visible">
      <path
         d="m2.6719-24.172h5.5625v13.156l6.3906-6.375h6.4688l-8.5 7.9844 9.1719 9.4062h-6.75l-6.7812-7.25v7.25h-5.5625z"
         id="path44" />
    </symbol>
    <symbol
       id="r"
       overflow="visible">
      <path
         d="m14.125-24.172v3.6562h-3.0781c-0.79297 0-1.3438 0.14062-1.6562 0.42188-0.30469 0.28125-0.45312 0.77734-0.45312 1.4844v1.2188h4.75v3.9688h-4.75v13.422h-5.5625v-13.422h-2.7656v-3.9688h2.7656v-1.2188c0-1.8945 0.52344-3.2969 1.5781-4.2031 1.0625-0.90625 2.6953-1.3594 4.9062-1.3594z"
         id="path47" />
    </symbol>
    <symbol
       id="e"
       overflow="visible">
      <path
         d="m10.953-13.844c-1.2305 0-2.1719 0.44531-2.8281 1.3281-0.64844 0.88672-0.96875 2.1641-0.96875 3.8281 0 1.668 0.32031 2.9453 0.96875 3.8281 0.65625 0.88672 1.5977 1.3281 2.8281 1.3281 1.207 0 2.1289-0.44141 2.7656-1.3281 0.64453-0.88281 0.96875-2.1602 0.96875-3.8281 0-1.6641-0.32422-2.9414-0.96875-3.8281-0.63672-0.88281-1.5586-1.3281-2.7656-1.3281zm0-3.9688c2.9883 0 5.3203 0.80859 7 2.4219 1.6875 1.6172 2.5312 3.8516 2.5312 6.7031 0 2.8672-0.84375 5.1055-2.5312 6.7188-1.6797 1.6172-4.0117 2.4219-7 2.4219-3 0-5.3516-0.80469-7.0469-2.4219-1.6992-1.6133-2.5469-3.8516-2.5469-6.7188 0-2.8516 0.84766-5.0859 2.5469-6.7031 1.6953-1.6133 4.0469-2.4219 7.0469-2.4219z"
         id="path50" />
    </symbol>
    <symbol
       id="q"
       overflow="visible">
      <path
         d="m2.9219-23.188h6.6719l8.4375 15.906v-15.906h5.6719v23.188h-6.6719l-8.4375-15.906v15.906h-5.6719z"
         id="path53" />
    </symbol>
    <symbol
       id="p"
       overflow="visible">
      <path
         d="m2.4844-6.7656v-10.625h5.5938v1.7344c0 0.9375-0.007813 2.1211-0.015625 3.5469-0.011719 1.4297-0.015625 2.375-0.015625 2.8438 0 1.4062 0.035156 2.418 0.10938 3.0312 0.070312 0.61719 0.19531 1.0625 0.375 1.3438 0.22656 0.36719 0.52344 0.64844 0.89062 0.84375 0.36328 0.1875 0.78516 0.28125 1.2656 0.28125 1.1562 0 2.0664-0.44141 2.7344-1.3281 0.66406-0.89453 1-2.1328 1-3.7188v-8.5781h5.5469v17.391h-5.5469v-2.5156c-0.84375 1.0117-1.7344 1.7617-2.6719 2.25-0.9375 0.47656-1.9688 0.71875-3.0938 0.71875-2.0117 0-3.543-0.61328-4.5938-1.8438-1.0547-1.2383-1.5781-3.0312-1.5781-5.375z"
         id="path56" />
    </symbol>
    <symbol
       id="o"
       overflow="visible">
      <path
         d="m2.9219-23.188h9.9219c2.9453 0 5.2109 0.65625 6.7969 1.9688 1.582 1.3047 2.375 3.168 2.375 5.5938 0 2.4375-0.79297 4.3125-2.375 5.625-1.5859 1.3047-3.8516 1.9531-6.7969 1.9531h-3.9375v8.0469h-5.9844zm5.9844 4.3281v6.4844h3.2969c1.1641 0 2.0625-0.28125 2.6875-0.84375 0.63281-0.57031 0.95312-1.375 0.95312-2.4062 0-1.0391-0.32031-1.8359-0.95312-2.3906-0.625-0.5625-1.5234-0.84375-2.6875-0.84375z"
         id="path59" />
    </symbol>
    <symbol
       id="n"
       overflow="visible">
      <path
         d="m2.6719-17.391h5.5625v17.078c0 2.332-0.5625 4.1094-1.6875 5.3281-1.1172 1.2266-2.7344 1.8438-4.8594 1.8438h-2.75v-3.6406h0.96875c1.0508 0 1.7734-0.24219 2.1719-0.71875 0.39453-0.48047 0.59375-1.418 0.59375-2.8125zm0-6.7812h5.5625v4.5312h-5.5625z"
         id="path62" />
    </symbol>
    <symbol
       id="m"
       overflow="visible">
      <path
         d="m16.734-16.859v4.5469c-0.76172-0.51953-1.5234-0.90625-2.2812-1.1562-0.76172-0.25-1.5547-0.375-2.375-0.375-1.5547 0-2.7617 0.45312-3.625 1.3594-0.86719 0.90625-1.2969 2.1719-1.2969 3.7969s0.42969 2.8906 1.2969 3.7969c0.86328 0.90625 2.0703 1.3594 3.625 1.3594 0.875 0 1.7031-0.125 2.4844-0.375 0.78125-0.25781 1.5039-0.64453 2.1719-1.1562v4.5469c-0.875 0.32422-1.7617 0.5625-2.6562 0.71875-0.89844 0.16406-1.793 0.25-2.6875 0.25-3.1484 0-5.6055-0.80078-7.375-2.4062-1.7734-1.6133-2.6562-3.8594-2.6562-6.7344 0-2.8633 0.88281-5.0977 2.6562-6.7031 1.7695-1.6133 4.2266-2.4219 7.375-2.4219 0.90625 0 1.8008 0.085938 2.6875 0.25 0.88281 0.15625 1.7695 0.39062 2.6562 0.70312z"
         id="path65" />
    </symbol>
  </defs>
  <g
     id="g148">
    <path
       d="m 350,4.5032016 c -91.6325,0 -179.50899,36.4002964 -244.30151,101.1952884 C 40.903499,170.48855 4.5032004,258.36997 4.5032004,350.00001 c 0,91.63003 36.4002986,179.50899 101.1952896,244.30151 64.79006,64.795 152.67148,101.19529 244.30151,101.19529 91.63004,0 179.50899,-36.40029 244.30152,-101.19529 64.79499,-64.79006 101.19529,-152.67148 101.19529,-244.30151 0,-91.63004 -36.4003,-179.50899 -101.19529,-244.30152 C 529.51146,40.903498 441.63004,4.5032016 350,4.5032016 Z M 263.62642,493.94528 V 206.03745 l 259.12075,148.15538 z"
       id="path70"
       style="stroke-width:0.999999" />
  </g>
</svg>
