<svg width="16" height="17" viewBox="0 0 16 17" fill="none" xmlns="http://www.w3.org/2000/svg">
<path d="M14.9459 2.81331C14.9459 4.07579 13.9226 5.09925 12.6601 5.09925C11.3976 5.09925 10.3743 4.07579 10.3743 2.81331C10.3743 1.55096 11.3976 0.527504 12.6601 0.527504C13.9226 0.527504 14.9459 1.55096 14.9459 2.81331Z" fill="black"/>
<path d="M12.6601 5.62675C11.1085 5.62675 9.84678 4.36492 9.84678 2.81331C9.84678 1.26184 11.1085 0 12.6601 0C14.2117 0 15.4734 1.26184 15.4734 2.81331C15.4734 4.36492 14.2117 5.62675 12.6601 5.62675ZM12.6601 1.05501C11.6902 1.05501 10.9018 1.8442 10.9018 2.81331C10.9018 3.78255 11.6902 4.57174 12.6601 4.57174C13.63 4.57174 14.4184 3.78255 14.4184 2.81331C14.4184 1.8442 13.63 1.05501 12.6601 1.05501Z" fill="black"/>
<path d="M14.9459 14.0667C14.9459 15.329 13.9226 16.3525 12.6601 16.3525C11.3976 16.3525 10.3743 15.329 10.3743 14.0667C10.3743 12.8042 11.3976 11.7808 12.6601 11.7808C13.9226 11.7808 14.9459 12.8042 14.9459 14.0667Z" fill="black"/>
<path d="M12.6601 16.88C11.1085 16.88 9.84678 15.6182 9.84678 14.0667C9.84678 12.5151 11.1085 11.2532 12.6601 11.2532C14.2117 11.2532 15.4734 12.5151 15.4734 14.0667C15.4734 15.6182 14.2117 16.88 12.6601 16.88ZM12.6601 12.3083C11.6902 12.3083 10.9018 13.0975 10.9018 14.0667C10.9018 15.0358 11.6902 15.825 12.6601 15.825C13.63 15.825 14.4184 15.0358 14.4184 14.0667C14.4184 13.0975 13.63 12.3083 12.6601 12.3083Z" fill="black"/>
<path d="M5.09925 8.44019C5.09925 9.70267 4.07579 10.726 2.81331 10.726C1.55096 10.726 0.527504 9.70267 0.527504 8.44019C0.527504 7.17771 1.55096 6.15439 2.81331 6.15439C4.07579 6.15439 5.09925 7.17771 5.09925 8.44019Z" fill="black"/>
<path d="M2.81331 11.2535C1.26184 11.2535 0 9.9918 0 8.44019C0 6.88859 1.26184 5.62688 2.81331 5.62688C4.36492 5.62688 5.62675 6.88859 5.62675 8.44019C5.62675 9.9918 4.36492 11.2535 2.81331 11.2535ZM2.81331 6.68189C1.84343 6.68189 1.05501 7.47096 1.05501 8.44019C1.05501 9.40943 1.84343 10.1985 2.81331 10.1985C3.78332 10.1985 4.57174 9.40943 4.57174 8.44019C4.57174 7.47096 3.78332 6.68189 2.81331 6.68189Z" fill="black"/>
<path d="M4.47384 8.10239C4.22902 8.10239 3.99128 7.97502 3.86185 7.7472C3.66983 7.4103 3.78806 6.98054 4.12496 6.78775L10.6511 3.06715C10.9881 2.87372 11.4178 2.99194 11.6106 3.33013C11.8026 3.66704 11.6844 4.09679 11.3475 4.28958L4.82117 8.01018C4.71145 8.07277 4.59194 8.10239 4.47384 8.10239Z" fill="black"/>
<path d="M10.9994 13.9051C10.8812 13.9051 10.7617 13.8755 10.6519 13.8129L4.12564 10.0923C3.78873 9.90023 3.67064 9.47048 3.86266 9.1328C4.0539 8.79525 4.4843 8.67638 4.82198 8.86982L11.3483 12.5904C11.6852 12.7825 11.8033 13.2122 11.6113 13.5499C11.4812 13.7777 11.2434 13.9051 10.9994 13.9051Z" fill="black"/>
</svg>
